<svg xmlns="http://www.w3.org/2000/svg" viewBox="0 0 35.02 33.85"><defs><style>.cls-1{fill:#fff;fill-rule:evenodd;}</style></defs><title>Asset 12</title><g id="Layer_2" data-name="Layer 2"><g id="Layer_1-2" data-name="Layer 1"><path class="cls-1" d="M26.33,20a2.94,2.94,0,0,1,2.37,3.38l-1.42,8a2.92,2.92,0,0,1-5.75-1l1.42-8A2.94,2.94,0,0,1,26.33,20ZM1.8,27.16a3.47,3.47,0,0,1,.11-1.67,17.51,17.51,0,1,1,31.18,0,3.47,3.47,0,0,1,.11,1.67l-.41,2.3a3.51,3.51,0,0,1-4.06,2.84l1.62-9.2a3.48,3.48,0,0,1,.55.14,14.59,14.59,0,1,0-26.84,0,3.49,3.49,0,0,1,.55-.14l1.62,9.2a3.51,3.51,0,0,1-4.06-2.84Zm10.27-4.77,1.42,8a2.92,2.92,0,0,1-5.75,1l-1.42-8a2.92,2.92,0,0,1,5.75-1Z"/></g></g></svg>