<?xml version="1.0" encoding="utf-8"?>
<!-- Generator: Adobe Illustrator 20.1.0, SVG Export Plug-In . SVG Version: 6.00 Build 0)  -->
<svg version="1.1" id="Layer_1" xmlns="http://www.w3.org/2000/svg" xmlns:xlink="http://www.w3.org/1999/xlink" x="0px" y="0px"
	 width="40px" height="40px" viewBox="0 0 40 40" style="enable-background:new 0 0 40 40;" xml:space="preserve">
<style type="text/css">
	.st0{fill:#FC0410;stroke:#FFFFFF;stroke-width:2;stroke-miterlimit:10;stroke-opacity:0.2;}
	.st1{fill:#FFFFFF;}
	.st2{display:none;fill:#FFFFFF;}
</style>
<path class="st0" d="M28,39H12C5.9,39,1,34,1,28V12C1,5.9,5.9,1,12,1h16c6,0,11,4.9,11,11v16C39,34,34,39,28,39z"/>
<g id="Layer_3">
	<polygon id="XMLID_7_" class="st1" points="29.5,17.5 22.5,17.5 22.5,10.5 17.5,10.5 17.5,17.5 10.5,17.5 10.5,22.5 17.5,22.5 
		17.5,29.5 22.5,29.5 22.5,22.5 29.5,22.5 	"/>
	<rect id="XMLID_2_" x="10.5" y="17.5" class="st2" width="19.1" height="5"/>
</g>
</svg>
