<?xml version="1.0" encoding="utf-8"?>
<!-- Generator: Adobe Illustrator 19.0.0, SVG Export Plug-In . SVG Version: 6.00 Build 0)  -->
<svg version="1.1" class="progress_indicator" xmlns="http://www.w3.org/2000/svg" xmlns:xlink="http://www.w3.org/1999/xlink" x="0px" y="0px"
	 viewBox="0 0 19 19" style="enable-background:new 0 0 19 19;" xml:space="preserve">
<style type="text/css">
	svg.progress_indicator .st0{opacity:0.3;}
	svg.progress_indicator .st1{fill-rule:evenodd;clip-rule:evenodd;fill:#FFFFFF;}
</style>
<g class="notattempted">
	<g id="XMLID_4_" class="st0">
		<g id="XMLID_65_">
			<path id="XMLID_66_" class="st1" d="M9.5,0C4.3,0,0,4.3,0,9.5S4.3,19,9.5,19c5.2,0,9.5-4.3,9.5-9.5S14.7,0,9.5,0z M9.5,17
				C5.4,17,2,13.6,2,9.5C2,5.4,5.4,2,9.5,2C13.6,2,17,5.4,17,9.5C17,13.6,13.6,17,9.5,17z"/>
		</g>
	</g>
</g>
<g class="incomplete">
	<path id="XMLID_5_" class="st1" d="M9.5,0C4.3,0,0,4.3,0,9.5S4.3,19,9.5,19c5.2,0,9.5-4.3,9.5-9.5S14.7,0,9.5,0z M9.5,17
		c-0.2,0-0.3,0-0.5,0V2c0.2,0,0.3,0,0.5,0C13.6,2,17,5.4,17,9.5S13.6,17,9.5,17z"/>
</g>
<g class="completed">
	<g id="XMLID_2_">
		<g id="XMLID_61_">
			<path id="XMLID_62_" class="st1" d="M9.5,0C4.3,0,0,4.3,0,9.5S4.3,19,9.5,19c5.2,0,9.5-4.3,9.5-9.5S14.7,0,9.5,0z M13.8,6.4
				L7.4,14l-3.2-3.5c-0.3-0.4-0.3-0.9,0.2-1.2C4.8,9,5.4,9,5.7,9.4l1.6,1.8l4.9-5.9c0.3-0.4,0.9-0.5,1.4-0.2C14,5.5,14.1,6,13.8,6.4
				z"/>
		</g>
	</g>
</g>
<g class="locked">
	<g id="XMLID_3_">
		<g id="XMLID_87_">
			<path id="XMLID_88_" class="st1" d="M10.4,11.6c0-0.5-0.4-0.9-0.9-0.9c-0.5,0-0.9,0.4-0.9,0.9c0,0.3,0.2,0.6,0.5,0.8l-0.5,1.5
				l1.9,0l-0.5-1.5C10.2,12.2,10.4,11.9,10.4,11.6z M9.5,0C4.3,0,0,4.3,0,9.5S4.3,19,9.5,19S19,14.7,19,9.5S14.7,0,9.5,0z M6.2,5.4
				C6.2,3.5,7.7,2,9.5,2c1.8,0,3.3,1.5,3.3,3.4v2.5h-1.4V5.4c0-1.1-0.9-2-1.9-2c-1.1,0-1.9,0.9-1.9,2v2.5H6.2V5.4z M9.5,17
				c-2,0-4.5-1.3-4.5-2.2c0,0,0-3,0-6.5h9c0,3.4,0,6.4,0,6.5C14,15.7,11.5,17,9.5,17z"/>
		</g>
	</g>
</g>
</svg>
