<svg xmlns="http://www.w3.org/2000/svg" viewBox="0 0 26.01 26.04"><defs><style>.cls-1{fill:#fff;fill-rule:evenodd;}</style></defs><title>ui_mediawall_arrow</title><g id="Layer_2" data-name="Layer 2"><g id="Layer_1-2" data-name="Layer 1"><path class="cls-1" d="M13,0A13,13,0,1,0,26,13,13,13,0,0,0,13,0Zm3.77,13.08s0,0,0,0a1.46,1.46,0,0,1-.42.9l-3.46,3.46a1.47,1.47,0,0,1-2.08-2.08L13.23,13l-2.44-2.27a1.47,1.47,0,0,1,2.08-2.08l3.48,3.31h0a1.46,1.46,0,0,1,.3.44l0,0v0a1.43,1.43,0,0,1,.07.24v0a1.51,1.51,0,0,1,0,.26S16.77,13,16.77,13.08Z"/></g></g></svg>