<svg xmlns="http://www.w3.org/2000/svg" viewBox="0 0 32.92 20.86"><defs><style>.cls-1{fill:#fff;}</style></defs><title>ui_prog_n</title><g id="Layer_2" data-name="Layer 2"><g id="Layer_1-2" data-name="Layer 1"><path class="cls-1" d="M12.41,19.36a12,12,0,0,1-7.7-2.61A8.63,8.63,0,0,1,1.55,9.06,8.47,8.47,0,0,1,6.24,2.25,7.25,7.25,0,0,1,9.51,1.5,9.65,9.65,0,0,1,15,3.36a18.28,18.28,0,0,1,2.28,2.06A19.12,19.12,0,0,0,20.2,8a9.1,9.1,0,0,0,5.11,1.53h0a10.26,10.26,0,0,0,3.86-.77q-.59,1-1.29,2.13A19.75,19.75,0,0,1,12.41,19.36Z"/><path class="cls-1" d="M9.51,3a8.14,8.14,0,0,1,4.65,1.58,17.21,17.21,0,0,1,2.09,1.9A20.59,20.59,0,0,0,19.36,9.2,10.6,10.6,0,0,0,25.31,11L26,11a18.24,18.24,0,0,1-13.54,6.89,10.53,10.53,0,0,1-6.76-2.28A7.14,7.14,0,0,1,3,9.22,7,7,0,0,1,6.91,3.59,5.77,5.77,0,0,1,9.51,3m0-3A8.77,8.77,0,0,0,5.57.91a10.21,10.21,0,0,0-1.8,17,13.56,13.56,0,0,0,8.64,2.94,21.16,21.16,0,0,0,16.73-9.2A33.15,33.15,0,0,0,32.92,4a9.16,9.16,0,0,1-4.16,3.24A8.71,8.71,0,0,1,25.31,8,7.6,7.6,0,0,1,21,6.71c-1.9-1.27-3.25-3.24-5.13-4.58A11.17,11.17,0,0,0,9.51,0Z"/></g></g></svg>