<svg xmlns="http://www.w3.org/2000/svg" viewBox="0 0 90.73 57.31"><defs><style>.cls-3{fill:#00b7c6;}</style></defs><title>gum_icon</title><g id="Layer_2" data-name="Layer 2"><g id="Layer_1-2" data-name="Layer 1"><path class="cls-3" d="M45.27,0C28.78,0,14.34,4,0,11.1v9.23s0,0,0,0v1.15a61.67,61.67,0,0,0,7.81,4V16.35H18.88V29.26q2.44.65,5,1.18V16.35H34.89V32.14q2.47.25,5,.39V16.35H50.9v16.2c1.67-.09,3.32-.22,5-.39V16.35H66.9v14c1.67-.38,3.31-.8,5-1.27V16.35H82.91v8.84c2.61-1.08,5.21-2.25,7.82-3.54V20.33h0v-9C78.82,3.93,61.83,0,45.27,0Z"/><path class="cls-3" d="M43.15,37.14C26.74,37.14,12.1,33.44,0,26.42V57.31H90.73V26.41A112.65,112.65,0,0,1,43.15,37.14Zm2.3,12.36a60.85,60.85,0,0,0-7.52.48,7.5,7.5,0,0,1,14.88,0A63.52,63.52,0,0,0,45.45,49.5Z"/></g></g></svg>