<svg xmlns="http://www.w3.org/2000/svg" viewBox="0 0 97.69 46.18"><defs><style>.cls-5{fill:#ce1126;}</style></defs><title>candy_icon</title><g id="Layer_2" data-name="Layer 2"><g id="Layer_1-2" data-name="Layer 1"><path class="cls-5" d="M14.62,24.3A5,5,0,0,1,12,23.22a4.38,4.38,0,0,1-1.85-3.78c.09-1.23.64-2.41.75-3.66a5.52,5.52,0,0,0-2.23-5.2A5.55,5.55,0,0,0,.16,14.37c-.85,5.55,4.95,10,9.83,10.21a17.73,17.73,0,0,0,4.63-.29"/><path class="cls-5" d="M14.62,24.17A5,5,0,0,0,12,25.22,4.37,4.37,0,0,0,10.08,29c.07,1.23.62,2.42.73,3.67a5.52,5.52,0,0,1-2.28,5.16A5.54,5.54,0,0,1,.07,34C-.73,28.4,5.1,24,10,23.82a18.1,18.1,0,0,1,4.62.34"/><path class="cls-5" d="M83.07,23.85a5,5,0,0,0,2.66-1A4.4,4.4,0,0,0,87.61,19c-.07-1.24-.61-2.42-.72-3.67a5.49,5.49,0,0,1,2.28-5.16,5.54,5.54,0,0,1,8.46,3.84c.79,5.57-5,9.93-9.93,10.13a17.75,17.75,0,0,1-4.62-.33"/><path class="cls-5" d="M83.07,23.72a5,5,0,0,1,2.64,1.07,4.36,4.36,0,0,1,1.85,3.78c-.08,1.24-.64,2.41-.75,3.66a5.41,5.41,0,1,0,10.72,1.41c.84-5.55-4.95-10-9.84-10.22a18.18,18.18,0,0,0-4.63.29"/><path class="cls-5" d="M31.36,20.26a48.32,48.32,0,0,0,8.22-5.16,56.12,56.12,0,0,1,8-5.1A33.24,33.24,0,0,1,62.11,6.54,27.62,27.62,0,0,1,72.34,8.45,36.74,36.74,0,0,0,48.83,0C29,0,18.18,15,14.93,20.42A21.08,21.08,0,0,0,31.36,20.26Z"/><path class="cls-5" d="M76.45,14.68a24.28,24.28,0,0,0-14.35-4.46,30.81,30.81,0,0,0-13.56,3.23,54.91,54.91,0,0,0-7.66,4.91,51.3,51.3,0,0,1-8.61,5.39,23.34,23.34,0,0,1-18.41.1c.3.6,11.09,22.32,35,22.32,24.22,0,35-22.36,35-22.36a39.69,39.69,0,0,0-4.12-6.34A26.45,26.45,0,0,0,76.45,14.68Z"/></g></g></svg>