<svg xmlns="http://www.w3.org/2000/svg" viewBox="0 0 80.8 58.69"><defs><style>.cls-1{fill:#fcd116;}</style></defs><title>savory_biscuit</title><g id="Layer_2" data-name="Layer 2"><g id="Layer_1-2" data-name="Layer 1"><path class="cls-1" d="M78.08,50.46h0a4.08,4.08,0,0,0,1.64-5.09,3.66,3.66,0,0,0-1.64-1.77v-.18a4.1,4.1,0,0,0,1.64-5.1,3.69,3.69,0,0,0-1.64-1.77v-.18a4.09,4.09,0,0,0,1.64-5.09,3.65,3.65,0,0,0-1.64-1.77v-.18a4.1,4.1,0,0,0,1.64-5.09,3.66,3.66,0,0,0-1.64-1.77v-.18a4.09,4.09,0,0,0,1.64-5.09,3.7,3.7,0,0,0-1.64-1.77v-.18a4.09,4.09,0,0,0,1.64-5.09,3.68,3.68,0,0,0-1.64-1.76V8.24a4.19,4.19,0,0,0,2.58-2.73,4.41,4.41,0,0,0-5-5.44A5.89,5.89,0,0,0,72,2.32,3.8,3.8,0,0,0,70.16.46,4.12,4.12,0,0,0,65,2.27,3.71,3.71,0,0,0,63.11.46a4.12,4.12,0,0,0-5.19,1.81A3.72,3.72,0,0,0,56.07.46a4.1,4.1,0,0,0-5.19,1.81A3.77,3.77,0,0,0,49,.46a4.11,4.11,0,0,0-5.19,1.81A3.72,3.72,0,0,0,42,.46a4.11,4.11,0,0,0-5.2,1.81A3.78,3.78,0,0,0,34.94.46a4.11,4.11,0,0,0-5.19,1.81A3.73,3.73,0,0,0,27.9.46a4.12,4.12,0,0,0-5.2,1.81A3.71,3.71,0,0,0,20.85.46a4.12,4.12,0,0,0-5.2,1.81A3.72,3.72,0,0,0,13.81.46,4.12,4.12,0,0,0,8.66,2.2,5.84,5.84,0,0,0,5.14.06a4.42,4.42,0,0,0-5,5.44A4.18,4.18,0,0,0,2.73,8.24v.19a3.66,3.66,0,0,0-1.56,1.71,4.07,4.07,0,0,0,1.56,5v.29a3.67,3.67,0,0,0-1.56,1.72,4.08,4.08,0,0,0,1.56,5v.29a3.62,3.62,0,0,0-1.56,1.72,4.08,4.08,0,0,0,1.56,5v.28a3.73,3.73,0,0,0-1.56,1.73,4.08,4.08,0,0,0,1.56,5v.28a3.66,3.66,0,0,0-1.56,1.72,4.08,4.08,0,0,0,1.56,5v.29a3.62,3.62,0,0,0-1.56,1.72,4.08,4.08,0,0,0,1.56,5v.06A4.21,4.21,0,0,0,.15,53.19a4.41,4.41,0,0,0,5,5.44A6.14,6.14,0,0,0,8.76,56a4.09,4.09,0,0,0,5.05,1.58,3.64,3.64,0,0,0,1.84-1.8,4.11,4.11,0,0,0,5.2,1.8,3.63,3.63,0,0,0,1.85-1.8,4.11,4.11,0,0,0,5.2,1.8,3.65,3.65,0,0,0,1.85-1.8,4.1,4.1,0,0,0,5.19,1.8,3.71,3.71,0,0,0,1.86-1.8,4.11,4.11,0,0,0,5.2,1.8,3.64,3.64,0,0,0,1.84-1.8A4.1,4.1,0,0,0,49,57.58a3.68,3.68,0,0,0,1.87-1.8,4.1,4.1,0,0,0,5.19,1.8,3.64,3.64,0,0,0,1.84-1.8,4.11,4.11,0,0,0,5.19,1.8A3.63,3.63,0,0,0,65,55.78a4.11,4.11,0,0,0,5.19,1.8,3.62,3.62,0,0,0,1.79-1.71,6.28,6.28,0,0,0,3.72,2.77,4.4,4.4,0,0,0,5-5.44A4.22,4.22,0,0,0,78.08,50.46ZM15.16,49a2.67,2.67,0,1,1,2.67-2.67A2.67,2.67,0,0,1,15.16,49Zm0-11.33A2.67,2.67,0,1,1,17.83,35,2.67,2.67,0,0,1,15.16,37.69Zm0-11.33a2.67,2.67,0,1,1,2.67-2.66A2.66,2.66,0,0,1,15.16,26.35Zm0-11.32a2.67,2.67,0,1,1,2.67-2.67A2.67,2.67,0,0,1,15.16,15ZM28.08,49a2.67,2.67,0,1,1,2.67-2.67A2.68,2.68,0,0,1,28.08,49Zm0-11.33A2.67,2.67,0,1,1,30.75,35,2.68,2.68,0,0,1,28.08,37.69Zm0-11.33a2.67,2.67,0,1,1,2.67-2.66A2.67,2.67,0,0,1,28.08,26.35Zm0-11.32a2.67,2.67,0,1,1,2.67-2.67A2.68,2.68,0,0,1,28.08,15ZM41,49a2.67,2.67,0,1,1,2.66-2.67A2.67,2.67,0,0,1,41,49Zm0-11.33A2.67,2.67,0,1,1,43.66,35,2.67,2.67,0,0,1,41,37.69Zm0-11.33a2.67,2.67,0,1,1,2.66-2.66A2.66,2.66,0,0,1,41,26.35ZM41,15a2.67,2.67,0,1,1,2.66-2.67A2.67,2.67,0,0,1,41,15ZM53.91,49a2.67,2.67,0,1,1,2.67-2.67A2.68,2.68,0,0,1,53.91,49Zm0-11.33A2.67,2.67,0,1,1,56.57,35,2.68,2.68,0,0,1,53.91,37.69Zm0-11.33a2.67,2.67,0,1,1,2.67-2.66A2.67,2.67,0,0,1,53.91,26.35Zm0-11.32a2.67,2.67,0,1,1,2.67-2.67A2.68,2.68,0,0,1,53.91,15ZM66.82,49a2.67,2.67,0,1,1,2.67-2.67A2.67,2.67,0,0,1,66.82,49Zm0-11.33A2.67,2.67,0,1,1,69.49,35,2.67,2.67,0,0,1,66.82,37.69Zm0-11.33a2.67,2.67,0,1,1,2.67-2.66A2.66,2.66,0,0,1,66.82,26.35Zm0-11.32a2.67,2.67,0,1,1,2.67-2.67A2.67,2.67,0,0,1,66.82,15Z"/></g></g></svg>