<svg xmlns="http://www.w3.org/2000/svg" viewBox="0 0 89.49 52.27"><defs>
<style>.cls-4{fill:#4f2170;}</style>
</defs><title>chocolate_icon</title><g id="Layer_2" data-name="Layer 2"><g id="Layer_1-2" data-name="Layer 1"><path class="cls-4" d="M65.73,39.79a2.23,2.23,0,0,0-2.2-2.25H49a2.23,2.23,0,0,0-2.2,2.25V50A2.23,2.23,0,0,0,49,52.23H63.53A2.23,2.23,0,0,0,65.73,50Z"/><path class="cls-4" d="M65.73,21.22A2.23,2.23,0,0,0,63.53,19H49a2.23,2.23,0,0,0-2.2,2.25V31.41A2.24,2.24,0,0,0,49,33.67H63.53a2.23,2.23,0,0,0,2.2-2.26Z"/><path class="cls-4" d="M89.49,39.79a2.23,2.23,0,0,0-2.2-2.25H72.71a2.23,2.23,0,0,0-2.2,2.25V50a2.23,2.23,0,0,0,2.2,2.25H87.29A2.23,2.23,0,0,0,89.49,50Z"/><path class="cls-4" d="M89.49,21.22A2.24,2.24,0,0,0,87.29,19H72.71a2.23,2.23,0,0,0-2.2,2.25V31.41a2.23,2.23,0,0,0,2.2,2.26H87.29a2.24,2.24,0,0,0,2.2-2.26Z"/><path class="cls-4" d="M65.73,2.28A2.23,2.23,0,0,0,63.53,0H49a2.23,2.23,0,0,0-2.2,2.25V12.46A2.23,2.23,0,0,0,49,14.72H63.53a2.23,2.23,0,0,0,2.2-2.26Z"/><path class="cls-4" d="M89.49,2.28A2.23,2.23,0,0,0,87.29,0H72.71a2.23,2.23,0,0,0-2.2,2.25V12.46a2.23,2.23,0,0,0,2.2,2.26H87.29a2.23,2.23,0,0,0,2.2-2.26Z"/><path class="cls-4" d="M39.77,14.72A2.23,2.23,0,0,0,42,12.46V2.28A2.23,2.23,0,0,0,39.77,0h-13a0,0,0,0,0,0,0H3.34A3.22,3.22,0,0,0,0,3.07V49.2a3.21,3.21,0,0,0,3.34,3.06H35.8s0,0,0,0h4A2.23,2.23,0,0,0,42,50V39.79a2.23,2.23,0,0,0-2.2-2.25h-3a28.25,28.25,0,0,0-1.17-3.87h4.19A2.23,2.23,0,0,0,42,31.41V21.22A2.23,2.23,0,0,0,39.77,19H27a25.51,25.51,0,0,1-1.29-2.64c-.21-.53-.39-1.08-.55-1.62H39.77ZM26.84,26.54a47.21,47.21,0,0,1,4.21,7,23.37,23.37,0,0,1,1.58,14.81H4.24V3.89H20.81a21.69,21.69,0,0,0,.9,13.81A49.31,49.31,0,0,0,26.84,26.54Z"/></g></g></svg>