<svg xmlns="http://www.w3.org/2000/svg" viewBox="0 0 90.48 66.86"><defs><style>.cls-6{fill:#0036a3;}</style></defs><title>Asset 1</title><g id="Layer_2" data-name="Layer 2"><g id="Layer_1-2" data-name="Layer 1"><path class="cls-6" d="M51.32,14.59A26,26,0,1,0,32.95,58.91h0A26,26,0,0,0,51.32,14.59Zm-3.76,2.94.78,5.34-6-6.7ZM40.88,23a1.06,1.06,0,1,1,0,1.49A1.08,1.08,0,0,1,40.88,23ZM28,17.12a.6.6,0,0,1,.35-.53,4.39,4.39,0,0,0,3.19-2.74s.11-.58.49-.76l.29,0,.28,0c.38.17.49.76.49.76a4.44,4.44,0,0,0,3.18,2.74.59.59,0,0,1,.36.53v.17a.57.57,0,0,1-.36.53,4.44,4.44,0,0,0-3.18,2.74s-.11.58-.49.76a2.31,2.31,0,0,1-.28.05,2.76,2.76,0,0,1-.29-.05c-.38-.17-.49-.76-.49-.76a4.39,4.39,0,0,0-3.19-2.74.58.58,0,0,1-.35-.53A.48.48,0,0,1,28,17.12ZM23.64,23a1.07,1.07,0,0,1,0,1.49,1,1,0,0,1-1.49,0,1,1,0,0,1,0-1.49A1,1,0,0,1,23.64,23ZM16.7,17.82,22,17l-6.69,6ZM15.15,36.74a1.16,1.16,0,0,1-.3.06,1.58,1.58,0,0,1-.28,0,1.17,1.17,0,0,1-.5-.76,4.39,4.39,0,0,0-3.17-2.73.59.59,0,0,1-.36-.53v-.17A.56.56,0,0,1,10.9,32a4.43,4.43,0,0,0,3.17-2.74s.12-.59.5-.76l.28-.06.29.06c.39.17.49.76.49.76A4.46,4.46,0,0,0,18.81,32a.55.55,0,0,1,.36.52v.17a.57.57,0,0,1-.36.53A4.42,4.42,0,0,0,15.64,36S15.53,36.58,15.15,36.74Zm2.41,12.53L16.21,44l6.69,6Zm6.73-5.88a1,1,0,0,1-1.48-1.48,1,1,0,1,1,1.48,1.48Zm12.37,5.38a.57.57,0,0,1-.35.53A4.42,4.42,0,0,0,33.14,52s-.12.59-.49.75a1.38,1.38,0,0,1-.29.06,1.18,1.18,0,0,1-.28-.06c-.39-.16-.5-.75-.5-.75a4.41,4.41,0,0,0-3.19-2.74.61.61,0,0,1-.35-.53v-.17a.61.61,0,0,1,.35-.53,4.37,4.37,0,0,0,3.19-2.74s.11-.58.49-.75a2.26,2.26,0,0,1,.29-.05,1.83,1.83,0,0,1,.28.05,1.17,1.17,0,0,1,.5.75,4.38,4.38,0,0,0,3.18,2.74.57.57,0,0,1,.35.53A.52.52,0,0,1,36.66,48.77ZM33,38.81c-5,0-9.07-2.81-9.07-6.27s4.06-6.28,9.07-6.28S42,29.07,42,32.54,38,38.81,33,38.81Zm9.6,3.76a1.06,1.06,0,1,1,0-1.49A1.06,1.06,0,0,1,42.55,42.57Zm5.88,5.25-5.28,1.35,6.06-6.7ZM55,32.92a4.41,4.41,0,0,0-3.18,2.75,1.19,1.19,0,0,1-.49.76l-.29,0-.29,0a1.14,1.14,0,0,1-.49-.76,4.44,4.44,0,0,0-3.18-2.75.55.55,0,0,1-.36-.51.8.8,0,0,1,0-.18.56.56,0,0,1,.36-.53A4.41,4.41,0,0,0,50.26,29s.1-.58.48-.76a2.72,2.72,0,0,1,.3,0,2,2,0,0,1,.28,0c.38.17.49.76.49.76A4.38,4.38,0,0,0,55,31.71a.57.57,0,0,1,.35.53.35.35,0,0,1,0,.18A.56.56,0,0,1,55,32.92Z"/><path class="cls-6" d="M33,27.57c-4.28,0-7.76,2.23-7.76,5s3.49,5,7.76,5,7.76-2.22,7.76-5S37.22,27.57,33,27.57Z"/><path class="cls-6" d="M83.7,13.86a33,33,0,0,0-37.27-11A33,33,0,1,0,44.05,64,33,33,0,0,0,83.7,13.86ZM33,60.63h0a27.64,27.64,0,1,1,19.57-8.09A27.53,27.53,0,0,1,32.95,60.63ZM73.72,55a26.58,26.58,0,0,1-21.8,4.86A33,33,0,0,0,56.28,9.64c-.75-.74-1.53-1.43-2.32-2.1A26.61,26.61,0,0,1,73.72,55Z"/></g></g></svg>