<svg xmlns="http://www.w3.org/2000/svg" viewBox="0 0 73.31 78.66"><defs><style>.cls-2{fill:#bac405;}</style></defs><title>Powdered_Beverages_icon</title><g id="Layer_2" data-name="Layer 2"><g id="Layer_1-2" data-name="Layer 1"><path class="cls-2" d="M69.81,40.4a12.23,12.23,0,0,0-8.62-3.62,11.94,11.94,0,0,0-4.66,1c0-2.34-.07-4.22-.07-5.25H.13S-.64,57.13,1.59,62.88C6,74.16,13.48,78.43,25.38,78.64v0h5.77v0c11.33-.21,18.68-4.1,23.14-14.22.48,0,1,.07,1.45.07,8.41,0,17.48-6.23,17.56-15.51A12,12,0,0,0,69.81,40.4Zm-14,18.28a121.31,121.31,0,0,0,.71-13.85,5.4,5.4,0,0,1,2.08-1.68,6.31,6.31,0,0,1,8.85,5.79C67.44,54.85,61.18,58.62,55.86,58.68Z"/><path class="cls-2" d="M27.19,27a9.27,9.27,0,0,1,2.08-4.94A8.19,8.19,0,0,1,36.4,18.7c2.31.19,4.5,1.26,6.82,1.51,3.69.41,7.63-.88,9.78-4a10.37,10.37,0,0,0-6.86-16c-10.37-1.73-18.79,9-19.39,18.14A33.91,33.91,0,0,0,27.19,27"/><path class="cls-2" d="M23.18,27a5.43,5.43,0,0,1-3-.63,4.71,4.71,0,0,1-2.69-3.65c-.15-1.32.21-2.68.1-4a5.93,5.93,0,0,0-3.37-5.06A6,6,0,0,0,6,19.28c.18,6,7.16,9.6,12.38,8.93A19.49,19.49,0,0,0,23.18,27"/></g></g></svg>