<?xml version="1.0" encoding="utf-8"?>
<!-- Generator: Adobe Illustrator 21.0.0, SVG Export Plug-In . SVG Version: 6.00 Build 0)  -->
<svg version="1.1" id="Layer_1" xmlns="http://www.w3.org/2000/svg" xmlns:xlink="http://www.w3.org/1999/xlink" x="0px" y="0px"
	 viewBox="0 0 73.3 78.7" style="enable-background:new 0 0 73.3 78.7;" xml:space="preserve">
<style type="text/css">
	.st0{fill:#F95602;}
</style>
<title>Powdered_Beverages_icon</title>
<path class="st0" d="M31.9,22.1l-1.4-11.2L12.2,4l-1.2,3.2l16.3,6.1l1.1,8.7H18.1l8.3,56.6H54l8.3-56.6H31.9z M26.6,46.9l-3-20.1H29
	l2.7,20.8c-0.4,0.1-0.9,0.1-1.3,0.1C29.1,47.6,27.8,47.4,26.6,46.9z M51.1,37.1c-3.1,0-6.2,1.1-8.9,3c-1.3,0.9-2.3,2-3.4,3
	c-1.1,1.1-2.2,2.2-3.4,3c-0.2,0.1-0.3,0.2-0.5,0.3l-2.5-19.6h24.4l-1.6,11C54,37.3,52.6,37.1,51.1,37.1z"/>
</svg>
