<svg xmlns="http://www.w3.org/2000/svg" viewBox="0 0 706.09 699.53"><defs><style>.cls-1{fill:#404147;}</style></defs><title>meals_icon</title><g id="Layer_2" data-name="Layer 2"><g id="Layer_1-2" data-name="Layer 1"><path class="cls-1" d="M674.23,31.2C626.38-8.95,542,12.85,485.75,79.89c-43.81,52.21-57.63,116.46-39,161.29a19.63,19.63,0,0,1-3.46,20.6l-83.19,93.6L300.93,289a19.5,19.5,0,0,1-2.14-23.22,77,77,0,0,0-6.43-90l-.5-.6L267.3,145.9,149,4.86A13.59,13.59,0,0,0,129.8,3.18l-.21.18a13.59,13.59,0,0,0-1.68,19.15L237.73,153.37a13.28,13.28,0,0,1-1.64,18.7l-.21.17a13.28,13.28,0,0,1-18.7-1.64L107.37,39.74a13.59,13.59,0,0,0-19.15-1.68l-.21.18a13.59,13.59,0,0,0-1.68,19.15L196.15,188.26a13.28,13.28,0,0,1-1.64,18.7l-.21.17a13.28,13.28,0,0,1-18.7-1.64L65.79,74.63A13.59,13.59,0,0,0,46.65,73l-.21.18a13.59,13.59,0,0,0-1.68,19.15L154.57,223.15a13.28,13.28,0,0,1-1.64,18.7l-.21.17a13.28,13.28,0,0,1-18.7-1.64L24.21,109.52a13.59,13.59,0,0,0-19.15-1.68l-.21.18a13.59,13.59,0,0,0-1.68,19.15l118.35,141,24.56,29.27.5.6a77,77,0,0,0,87.54,22,19.5,19.5,0,0,1,22.5,6.14l60.86,77.11L119.42,626.15a42.15,42.15,0,0,0,5.2,59.38l.65.55a42.15,42.15,0,0,0,59.38-5.2L360.89,458.28,539.43,684.47a42.15,42.15,0,0,0,59.38,5.2l.65-.55a42.15,42.15,0,0,0,5.2-59.38l-201-225.48,83.59-105.58a19.63,19.63,0,0,1,19.68-7C554.32,302.24,615.2,277.47,659,225.26,715.25,158.23,722.07,71.34,674.23,31.2Z"/></g></g></svg>