<?xml version="1.0" encoding="utf-8"?>
<!-- Generator: Adobe Illustrator 20.0.0, SVG Export Plug-In . SVG Version: 6.00 Build 0)  -->
<!DOCTYPE svg PUBLIC "-//W3C//DTD SVG 1.1//EN" "http://www.w3.org/Graphics/SVG/1.1/DTD/svg11.dtd">
<svg version="1.1" id="biscuit" xmlns="http://www.w3.org/2000/svg" xmlns:xlink="http://www.w3.org/1999/xlink" x="0px" y="0px"
	 viewBox="0 0 417.3 427.3" style="enable-background:new 0 0 417.3 427.3;" xml:space="preserve">
<style type="text/css">
	.svg.biscuit .st0{fill:#C4CBCF;}
	.svg.biscuit .st1{fill:#EBF2F6;}
	.svg.biscuit .st2{fill:none;stroke:#F95602;stroke-width:9.5572;stroke-miterlimit:10;}
	.svg.biscuit .st3{fill:#FCD116;}
	.svg.biscuit .st4{fill:none;}
	.svg.biscuit .st5{opacity:0.5;fill:#231F20;stroke:#414042;stroke-width:0.1991;stroke-miterlimit:10;}
	.svg.biscuit .st6{fill:#FFFFFF;stroke:#231F20;stroke-width:0.3982;stroke-linejoin:round;stroke-miterlimit:10;}
	.svg.biscuit .st7{fill:#FFFFFF;stroke:#231F20;stroke-width:0.3982;stroke-linecap:round;stroke-linejoin:round;stroke-miterlimit:10;}
	.svg.biscuit .st8{fill:url(#SVGID_1_);}
	.svg.biscuit .st9{fill:#F95602;}
	.svg.biscuit .st10{fill:#1482B2;stroke:#EBF2F6;stroke-width:0;stroke-linecap:round;stroke-linejoin:round;}
	.svg.biscuit .st11{fill:#1482B2;stroke:#12B0B6;stroke-width:0;stroke-linecap:round;stroke-linejoin:round;}
	.svg.biscuit .st12{fill:#FCD116;stroke:#12B0B6;stroke-width:0;stroke-linecap:round;stroke-linejoin:round;}
	.svg.biscuit .st13{opacity:0.15;fill:#231F20;}
	.svg.biscuit .st14{fill:#231F20;}
</style>
<polygon class="st0" points="254.5,158.4 247.6,202.2 193.1,160.7 199.9,115 "/>
<polygon class="st0" points="134.7,254.5 242.2,196.2 192.9,160.7 86.7,221 "/>
<g>
	<path class="st1" d="M53.7,179.8c0-0.1-0.1-0.1-0.1-0.2c-16.3-28.3-6.1-64.8,22.7-81.5c9.3-5.4,19.9-8.3,30.6-8.3
		c21.2,0,40.9,11.3,51.4,29.4c0.1,0.1,0.1,0.2,0.2,0.3l27.6,39.6L80.7,219.9L53.7,179.8z"/>
	<path class="st2" d="M53.7,179.8c0-0.1-0.1-0.1-0.1-0.2c-16.3-28.3-6.1-64.8,22.7-81.5c9.3-5.4,19.9-8.3,30.6-8.3
		c21.2,0,40.9,11.3,51.4,29.4c0.1,0.1,0.1,0.2,0.2,0.3l27.6,39.6L80.7,219.9L53.7,179.8z"/>
</g>
<path class="st3" d="M77.8,100.7c-26.6,15.4-35.1,50.3-20,76.5l96.2-56C138.9,95,104.4,85.3,77.8,100.7z"/>
<line class="st4" x1="32.5" y1="168" x2="33.3" y2="167.1"/>
<line class="st4" x1="161.5" y1="115.3" x2="161.5" y2="115.3"/>
<line class="st5" x1="49.5" y1="182" x2="162.4" y2="116.6"/>
<g>
	<polygon class="st6" points="318.3,246 311.7,290 146.8,164.5 153.3,121.7 	"/>
	<polygon class="st7" points="153.2,121.7 180.4,105.7 348.1,228 318.2,245.9 	"/>
</g>
<g>
	<polygon class="st6" points="273.9,262.1 267.3,306.1 102.5,180.6 108.9,137.9 	"/>
	<polygon class="st7" points="108.8,137.9 136,121.8 303.7,244.2 273.8,262.1 	"/>
</g>
<g>
	<polygon class="st6" points="255.8,300.8 249.2,344.8 84.4,219.4 90.8,176.6 	"/>
	<polygon class="st7" points="90.8,176.6 117.9,160.5 285.7,282.9 255.7,300.8 	"/>
</g>
<polygon class="st1" points="262.8,313.6 255.8,360.7 79.2,226.3 86.1,180.5 "/>
<polygon class="st1" points="255.8,360.7 367.8,295.5 375,247.3 262.8,313.6 262.8,313.6 "/>
<linearGradient id="SVGID_1_" gradientUnits="userSpaceOnUse" x1="4425.1523" y1="264.7383" x2="4282.5781" y2="264.7383" gradientTransform="matrix(-1 0 0 1 4562.542 0)">
	<stop  offset="0" style="stop-color:#FF3D3E"/>
	<stop  offset="1" style="stop-color:#E73D3E"/>
</linearGradient>
<polygon class="st8" points="137.8,215.9 135.9,216.9 262.8,313.6 263.9,311.9 "/>
<path class="st3" d="M150.7,253.2c0.9,0.4,1.8,0.8,2.7,1.3c4.4,2.3,6.2,5.8,5.7,10.8c-0.3,2.6-1,5.1-0.8,7.8
	c0.4,6.4,4.9,11.2,10.8,11.1c6.5-0.1,11.2-5.3,11.1-12.3c-0.2-8.1-6.5-16.1-14.8-18.8c-4.5-1.4-9-1.5-13.5-0.5
	C151.4,252.7,151,252.7,150.7,253.2z"/>
<path class="st9" d="M134.4,225.9c-0.9,0.3-1.9,0.7-2.8,1c-4.7,1.5-8.5,0.3-11.6-3.6c-1.6-2-2.9-4.3-4.9-6.1
	c-4.8-4.3-11.4-4.4-15.5-0.2c-4.6,4.7-4.2,11.7,0.9,16.5c5.9,5.6,16,6.8,23.8,2.8c4.2-2.1,7.4-5.3,9.9-9.2
	C134.3,226.7,134.6,226.4,134.4,225.9z"/>
<path class="st9" d="M222.9,283.5c-3.6,4.4-6.2,9.4-7.5,14.7c-3.1,13.3,3.8,25.1,16.2,27.8c11.2,2.5,21.9-4.8,25.1-16.9
	c0-0.1,0-0.1,0-0.2L222.9,283.5z"/>
<g>
	<path class="st1" d="M193.3,119.6l-1,0.6c-0.1,0-0.2,0.1-0.2,0.2L193.3,119.6z"/>
	<path class="st1" d="M200,115.8L200,115.8c0.9,0.8,14.5,13.2,14.7,29.1c0.1,0.5,0.1,1.1,0,1.6c-0.5,9.9-6.4,21.1-24,31.6
		c-65.1,39.2-104.2,3-104.2,3l0,0c0,0,0,0,0,0l-0.4,0.2l176.7,133L375,248.2L200,115.8z"/>
</g>
<path class="st3" d="M158.3,225.2c2.5-0.3,4.9-0.8,7.4-1c12.2-1.1,20.9,3.7,26.5,14.6c3,5.8,4.9,12,8.9,17.3
	c9.5,12.9,25.5,16.6,37.7,8.4c13.5-9,16.2-26.2,6.3-40.6c-11.5-16.7-35.4-24.8-56.4-19c-11.2,3.1-20.8,9-28.9,17.4
	C159,223.2,158.1,223.8,158.3,225.2z"/>
<g>
	<path class="st9" d="M232.7,175c8.3,25.7,31.9,38.7,55.7,30.7c6.5-2.2,12-5.9,16.3-10.5l-73.8-55.8
		C228.6,151.3,229,163.6,232.7,175z"/>
</g>
<g>
	<line class="st11" x1="363.3" y1="239.5" x2="319.4" y2="206.4"/>
	<path class="st12" d="M363.3,239.5c-8.8,11.6-21.9,19.6-35.6,20.7c-17.4,1.3-30.9-9.6-31.9-25.8c-0.9-13.8,9.2-25.3,23.7-28"/>
</g>
<path class="st9" d="M277.3,273.6c-8.3-3.8-17-5.4-26.1-4.5c-11.2,1.2-21.6,7.1-28.4,15.3l33.9,25.5c1.3-5,1-10.1,1.5-15.1
	c1-9.6,5.9-15.6,15.2-18.2c1.9-0.5,3.8-0.9,5.7-1.4C278.9,274.2,278,274,277.3,273.6z"/>
<polygon class="st13" points="262.8,314.4 255.8,361.6 79.2,227.2 86.1,181.4 "/>
<path class="st9" d="M361.8,284.3c-0.7,0.5-1.4,1-2.2,1.4c-3.6,2.1-7.1,1.9-10.4-0.7c-1.8-1.4-3.3-3-5.3-4.1
	c-4.8-2.6-10.4-1.5-13,2.8c-2.9,4.8-1.2,10.5,3.9,13.6c6,3.5,14.6,2.6,20.4-2.3c3.1-2.6,5.2-5.9,6.5-9.6
	C361.8,285,362,284.7,361.8,284.3z"/>
<path class="st12" d="M288.8,332.9c0.1-0.6,0.2-1.2,0.4-1.8c0.8-2.9,2.6-4.5,5.6-4.9c1.6-0.2,3.2-0.1,4.7-0.6
	c3.7-1.1,5.9-4.5,5.1-7.9c-0.9-3.9-4.7-5.9-8.8-4.8c-4.8,1.2-8.6,6-9.1,11.4c-0.2,2.8,0.3,5.5,1.6,8.1
	C288.4,332.5,288.5,332.8,288.8,332.9z"/>
<polygon class="st13" points="255.8,361.6 367.8,296.4 375,248.2 262.8,314.4 262.8,314.4 "/>
<path class="st9" d="M144.6,131.9c-1.4-1.5-3.6-2.8-6.3-3.5c-4-0.9-7.7-0.1-9.5,1.9c1.3,1.5,3.6,2.8,6.4,3.4
	C139.4,134.7,143.2,133.9,144.6,131.9z"/>
<path class="st9" d="M145.8,185.3c-1.4-1.5-3.6-2.8-6.3-3.5c-4-0.9-7.7-0.1-9.5,1.9c1.3,1.5,3.6,2.8,6.4,3.4
	C140.6,188,144.4,187.2,145.8,185.3z"/>
<path class="st3" d="M207.8,148.2c-1.4-1.5-3.6-2.8-6.3-3.5c-4-0.9-7.7-0.1-9.5,1.9c1.3,1.5,3.6,2.8,6.4,3.4
	C202.5,151,206.4,150.2,207.8,148.2z"/>
<path class="st3" d="M134.6,154.6c0.9-1,1.6-2.6,1.8-4.4c0.3-2.7-0.6-5.1-2-6.1c-0.9,1-1.6,2.6-1.8,4.5
	C132.3,151.3,133.2,153.8,134.6,154.6z"/>
<path class="st3" d="M172,128.1c0.9-1,1.6-2.6,1.8-4.4c0.3-2.7-0.6-5.1-2-6.1c-0.9,1-1.6,2.6-1.8,4.5
	C169.7,124.8,170.5,127.3,172,128.1z"/>
<path class="st3" d="M116.4,189.7c0.9-1,1.6-2.6,1.8-4.4c0.3-2.7-0.6-5.1-2-6.1c-0.9,1-1.6,2.6-1.8,4.5
	C114.2,186.5,115,188.9,116.4,189.7z"/>
<path class="st3" d="M188.3,176.6c0.9-1,1.6-2.6,1.8-4.4c0.3-2.7-0.6-5.1-2-6.1c-0.9,1-1.6,2.6-1.8,4.5
	C186,173.4,186.9,175.8,188.3,176.6z"/>
<path class="st3" d="M111.3,153.4c1.1,0,2.5-0.5,3.7-1.4c1.8-1.3,2.8-3.1,2.6-4.5c-1.1,0-2.4,0.5-3.7,1.4
	C112,150.2,111,152.1,111.3,153.4z"/>
<path class="st9" d="M185.2,121.1c0.9,0.7,2.2,1.3,3.6,1.4c2.2,0.2,4.2-0.5,5-1.6c-0.8-0.7-2.2-1.3-3.7-1.4
	C187.8,119.2,185.8,119.9,185.2,121.1z"/>
<path class="st9" d="M152.4,181.8c0.9,0.7,2.3,1.1,3.8,1.1c2.2,0,4.1-0.8,4.8-2.1c-0.9-0.6-2.3-1.1-3.8-1.1
	C154.9,179.7,153,180.6,152.4,181.8z"/>
<path class="st3" d="M112.8,169.1c0.9,0.7,2.3,1.1,3.8,1.1c2.2,0,4.1-0.8,4.8-2.1c-0.9-0.6-2.3-1.1-3.8-1.1
	C115.3,167,113.3,167.9,112.8,169.1z"/>
<path class="st3" d="M162.7,158.4c-1.4-1.5-3.6-2.8-6.3-3.5c-4-0.9-7.7-0.1-9.5,1.9c1.3,1.5,3.6,2.8,6.4,3.4
	C157.4,161.2,161.2,160.4,162.7,158.4z"/>
<path class="st9" d="M188.1,134.5c0.4,1.1,1.3,2.1,2.6,3c1.8,1.2,3.9,1.5,5.2,0.9c-0.4-1-1.3-2.1-2.6-3
	C191.3,134.1,189.2,133.8,188.1,134.5z"/>
<path class="st9" d="M176.2,157.6c-0.4,1.1-0.5,2.5-0.1,3.9c0.5,2.2,1.8,3.8,3.2,4.1c0.4-1,0.5-2.5,0.1-4
	C178.8,159.5,177.5,157.9,176.2,157.6z"/>
<path class="st3" d="M203.1,127.1c-0.4,1.1-0.5,2.5-0.2,3.9c0.5,2.2,1.9,3.8,3.3,4.1c0.4-1,0.5-2.5,0.2-4
	C205.8,128.9,204.4,127.3,203.1,127.1z"/>
<path class="st14" d="M156.5,128.5c-0.3,0.7-0.4,1.6-0.1,2.5c0.3,1.4,1.2,2.4,2.2,2.7c0.3-0.7,0.3-1.6,0.1-2.6
	C158.3,129.7,157.4,128.6,156.5,128.5z"/>
</svg>
