<?xml version="1.0" encoding="utf-8"?>
<!-- Generator: Adobe Illustrator 20.1.0, SVG Export Plug-In . SVG Version: 6.00 Build 0)  -->
<svg version="1.1" id="Layer_1" xmlns="http://www.w3.org/2000/svg" xmlns:xlink="http://www.w3.org/1999/xlink" x="0px" y="0px"
	 width="582.1px" height="1194.1px" viewBox="0 0 582.1 1194.1" style="enable-background:new 0 0 582.1 1194.1;"
	 xml:space="preserve">
<style type="text/css">
	.st0{fill:#492F2F;}
	.st1{fill:#EF4D4A;}
	.st2{fill:#0B2D3E;}
	.st3{fill:#09181F;}
	.st4{fill:#092D3E;}
	.st5{fill:url(#SVGID_1_);}
	.st6{fill:url(#SVGID_2_);}
	.st7{fill:#314441;}
	.st8{fill:#F9F9F9;}
	.st9{fill:#229A94;}
	.st10{fill:url(#SVGID_3_);}
	.st11{fill:url(#SVGID_4_);}
	.st12{fill:url(#SVGID_5_);}
	.st13{fill:url(#SVGID_6_);}
	.st14{fill:url(#SVGID_7_);}
	.st15{fill:#A35563;}
	.st16{fill:url(#SVGID_8_);}
	.st17{fill:url(#SVGID_9_);}
	.st18{fill:url(#SVGID_10_);}
	.st19{fill:url(#SVGID_11_);}
	.st20{fill:#161419;}
	.st21{fill:#1D1B21;}
	.st22{fill:#CECECE;}
	.st23{fill:#231F1F;}
	.st24{fill:#E5E4E3;}
	.st25{fill:#EDEDED;}
	.st26{fill:#231F20;}
	.st27{fill:#1A1F1C;}
	.st28{fill:#239B95;}
	.st29{fill:#478EB0;}
	.st30{fill:#685E56;}
	.st31{fill:url(#SVGID_12_);}
	.st32{fill:url(#SVGID_13_);}
	.st33{fill:#28242D;}
	.st34{fill:#F7CFA6;}
	.st35{fill:#836C5A;}
	.st36{fill:url(#SVGID_14_);}
	.st37{fill:#CB9D6C;}
	.st38{fill:none;}
	.st39{fill:#FFFFFF;}
	.st40{fill:#D77C7F;}
	.st41{fill:#D87D7E;}
	.st42{fill:#403024;}
	.st43{filter:url(#Adobe_OpacityMaskFilter);}
	.st44{opacity:0.58;mask:url(#SVGID_15_);}
	.st45{fill:#FCFBFA;}
	.st46{fill:#927858;}
	.st47{fill:#F8D33E;}
	.st48{fill:url(#SVGID_16_);}
	.st49{fill:url(#SVGID_17_);}
	.st50{fill:#242E18;}
	.st51{fill:#E8E8E8;}
</style>
<g>
	<g>
		<path class="st0" d="M450.1,678.1l-24.1,2V680c0,0.1,0.5,7-1.8,16.7c-2.9,12.6-8.9,23.8-17.7,33.3c-21,22.6-56.9,34-106.7,34H245
			c-49.8,0-85.7-11.4-106.7-34c-8.8-9.5-14.8-20.7-17.7-33.3c-2.2-9.7-1.8-16.6-1.8-16.7v0.1l-24.1-2c-0.1,1.5-2.8,37.3,25.5,67.9
			c11.8,12.8,27.3,22.9,46.1,29.9c17,6.4,36.9,10.3,59.3,11.7v0.6H245h54.8h19.4v-0.6c22.4-1.4,42.3-5.3,59.3-11.7
			c18.8-7,34.3-17.1,46.1-29.9C452.9,715.3,450.2,679.6,450.1,678.1z"/>
		<path class="st1" d="M462.8,689.8c0,2-0.2,3.6-0.4,3.6h-48.6c-0.2,0-0.4-1.6-0.4-3.6v-31.5c0-2,0.2-3.7,0.4-3.8
			c0,0,15.7-8.7,24.1-8.7c8.5,0,24.5,8.7,24.5,8.7c0.2,0.1,0.4,1.9,0.4,3.8V689.8z"/>
		<path class="st1" d="M157.3,726.2c19.9,31.1,68.4,47.7,118.7,49.8c50.4-2.1,98.8-18.7,118.7-49.8H157.3z"/>
		<path class="st1" d="M450.5,369.5c-20.5-14.7-49.5-10.2-73.1-9.6c-33.2,0.8-66.4-1.5-99.6-1.9c-0.6,0-1.2,0-1.7,0
			c-0.6,0-1.2,0-1.7,0c-33.2,0.4-66.4,2.7-99.6,1.9c-23.5-0.6-52.6-5.2-73.1,9.6c-29.1,21-15.9,58.9-3.1,85.7
			c8.3,17.4,20.7,32.1,29.9,49c29.6,54.4,18,118.5,19.4,177.7c1.2,51.3,63.1,78.2,128.2,80.9c65.1-2.7,127-29.7,128.2-80.9
			c1.4-59.2-10.2-123.3,19.4-177.7c9.2-16.9,21.6-31.5,29.9-49C466.4,428.4,479.6,390.4,450.5,369.5z"/>
		<path class="st2" d="M276.1,762.8c61.8-2.6,120.8-27,127.6-73.4c-9.1-11-32.4-0.8-43.1,4c-27.9,12.7-55.8,21.3-86.8,19.5
			c-43.2-2.5-82.6-25.6-125.7-27C152.4,734.5,212.7,760.1,276.1,762.8z"/>
		<g>
			<g>
				<path class="st2" d="M431.5,1008v-4.8c0-17.2-11.7-31.1-26.1-31.1H147.5c-14.4,0-26.2,14-26.2,31.1v4.8H93.7v-4.8
					c0-32.4,24.1-58.7,53.7-58.7h257.9c29.6,0,53.8,26.3,53.8,58.7v4.8H431.5z"/>
				<path class="st2" d="M454.3,1003.2h-18c0-19.8-13.9-36-31-36H147.5c-17.1,0-31,16.1-31,36h-18c0-29.7,22-53.9,48.9-53.9h257.9
					C432.4,949.2,454.3,973.4,454.3,1003.2z"/>
			</g>
			<g>
				<rect x="262.3" y="945.4" class="st2" width="27.6" height="68.5"/>
				<rect x="267.1" y="950.2" class="st2" width="18" height="58.9"/>
			</g>
			<path class="st3" d="M467.8,1058.6c0,12.4-10.1,22.5-22.5,22.5l0,0c-12.4,0-22.5-10.1-22.5-22.5v-27c0-12.4,10.1-22.5,22.5-22.5
				l0,0c12.4,0,22.5,10.1,22.5,22.5V1058.6z"/>
			<path class="st3" d="M298.5,1058.6c0,12.4-10.1,22.5-22.5,22.5l0,0c-12.4,0-22.5-10.1-22.5-22.5v-27c0-12.4,10.1-22.5,22.5-22.5
				l0,0c12.4,0,22.5,10.1,22.5,22.5V1058.6z"/>
			<path class="st3" d="M129.2,1058.6c0,12.4-10.1,22.5-22.5,22.5l0,0c-12.4,0-22.5-10.1-22.5-22.5v-27c0-12.4,10.1-22.5,22.5-22.5
				l0,0c12.4,0,22.5,10.1,22.5,22.5V1058.6z"/>
			<path class="st2" d="M467.8,1051.7v-20.1c0-12.4-10.1-22.5-22.5-22.5s-22.5,10.1-22.5,22.5v20.1H467.8z"/>
			<path class="st2" d="M298.5,1051.7v-20.1c0-12.4-10.1-22.5-22.5-22.5s-22.5,10.1-22.5,22.5v20.1H298.5z"/>
			<path class="st2" d="M129.2,1051.7v-20.1c0-12.4-10.1-22.5-22.5-22.5s-22.5,10.1-22.5,22.5v20.1H129.2z"/>
			<path class="st4" d="M476.8,1045.1v-13.5c0-17.3-14.1-31.5-31.5-31.5c-17.3,0-31.5,14.1-31.5,31.5v13.5H476.8z"/>
			<path class="st4" d="M307.5,1045.1v-13.5c0-17.3-14.1-31.5-31.5-31.5s-31.5,14.1-31.5,31.5v13.5H307.5z"/>
			<path class="st4" d="M138.2,1045.1v-13.5c0-17.3-14.1-31.5-31.5-31.5c-17.3,0-31.5,14.1-31.5,31.5v13.5H138.2z"/>
		</g>
		<path class="st1" d="M431.5,757.2c0-17.1-12.4-31-27.7-31c0,0-83.6-5-127-5s-128.6,5-128.6,5c-15.3,0-27.7,13.9-27.7,31l0,0
			c0,17.1,12.4,31,27.7,31h255.6C419.1,788.2,431.5,774.3,431.5,757.2L431.5,757.2z"/>
		
			<linearGradient id="SVGID_1_" gradientUnits="userSpaceOnUse" x1="264.3" y1="319" x2="287.8264" y2="319" gradientTransform="matrix(1 0 0 -1 0 1194)">
			<stop  offset="5.618000e-03" style="stop-color:#D1D3D4"/>
			<stop  offset="4.904013e-02" style="stop-color:#CCCED0"/>
			<stop  offset="0.3368" style="stop-color:#B1B3B6"/>
			<stop  offset="0.5056" style="stop-color:#A7A9AC"/>
			<stop  offset="1" style="stop-color:#58595B"/>
		</linearGradient>
		<rect x="264.3" y="831.2" class="st5" width="23.5" height="87.6"/>
		<rect x="254.4" y="809.1" class="st2" width="43.4" height="31"/>
		<rect x="254.4" y="809.1" class="st2" width="43.4" height="19.4"/>
		<rect x="254.4" y="887.8" class="st2" width="43.4" height="31"/>
		<rect x="254.4" y="904" class="st2" width="43.4" height="14.7"/>
		<rect x="244" y="912" class="st2" width="64" height="45.7"/>
		<rect x="220.2" y="787.8" class="st2" width="111.6" height="33.7"/>
		<g>
			<g>
				
					<rect x="181.1" y="812.7" transform="matrix(0.9231 -0.3845 0.3845 0.9231 -295.8587 153.7671)" class="st2" width="111" height="8.1"/>
			</g>
			<path class="st2" d="M187.3,842.5l9.2-3.8c0.7-2.5,0.6-5.1-0.5-7.3c-0.4-0.8-0.9-1.6-1.5-2.3l-10.9,4.5L187.3,842.5z"/>
			
				<ellipse transform="matrix(0.904 -0.4275 0.4275 0.904 -342.3155 154.8057)" class="st2" cx="173.6" cy="839.7" rx="20" ry="13.6"/>
		</g>
		<path class="st1" d="M131.5,689.8c0,2-0.2,3.6-0.4,3.6H82.5c-0.2,0-0.4-1.6-0.4-3.6v-31.5c0-2,0.2-3.7,0.4-3.8
			c0,0,15.7-8.7,24.1-8.7c8.5,0,24.5,8.7,24.5,8.7c0.2,0.1,0.4,1.9,0.4,3.8V689.8z"/>
	</g>
	<g>
		
			<linearGradient id="SVGID_2_" gradientUnits="userSpaceOnUse" x1="-56.7247" y1="748.2973" x2="65.2281" y2="748.2973" gradientTransform="matrix(0.9959 -9.060000e-02 -9.060000e-02 -0.9959 201.5135 1192.8947)">
			<stop  offset="0" style="stop-color:#FFD99E"/>
			<stop  offset="0.9081" style="stop-color:#FFD99E"/>
			<stop  offset="1" style="stop-color:#FFD99E"/>
		</linearGradient>
		<path class="st6" d="M95.3,339.7c0,0-0.9-17.5,10.9-15.2c0,0,0.5,12.2,0.7,13.4c0.6,4.7,1.9,9.2,3.9,13.5c2.8,6.2,5.3,12.4,8,18.6
			c1.3,3,5.4,10.9,5,14.8c-0.3,3.9-2.2,17.9-1.9,21.7c0.3,3.8,13,40.8,13.1,53.9c0.3,39.2,4.3,14.2,4.3,14.2l5.7-45.1l28.5,1.1
			l24.3,1.5c-5.7,25.2-11.3,50.5-16.9,75.7c-2.4,10.8-45.7,72.7-52.8,65.8c-9.9-9.5-29.9-49.6-30.9-60.3c-2.1-23.2-3-46.4-4-69.6
			c-0.4-8.9-1.5-17.8-1.7-26.6l-0.3-9.7l-24-64.8L95.3,339.7z"/>
		<path class="st7" d="M65.6,314.6l0.8,9.1l4.7-0.4l7.5,82.5c0.6,7.1,6.9,12.3,14,11.7c7.1-0.6,12.3-6.9,11.7-14l-6.8-75.2
			c0,0-2.2,3.6-2.1,7.8C95.5,340.3,65.6,314.6,65.6,314.6z"/>
		<path class="st8" d="M65.4,313l8.7,96c0.7,7.6,7.5,13.3,15.1,12.6c7.6-0.7,13.3-7.5,12.6-15.1l-8.7-96L65.4,313z"/>
		<path class="st9" d="M75.1,367l3.6,40.1c0.5,5,4.9,8.7,9.9,8.3c5-0.5,8.7-4.9,8.3-9.9l-3.6-40.1L75.1,367z"/>
		
			<rect x="60.5" y="309.1" transform="matrix(0.9959 -9.059485e-02 9.059485e-02 0.9959 -28.1203 8.4892)" class="st8" width="37.9" height="9.8"/>
		<path class="st7" d="M64.8,400.8c-0.4-0.3-0.7-0.7-1-1.2c-1.1-2-1-6.3,1.4-7.4c2.1-1,6.5,1.4,8.4,2.1c4.4,1.8,17.7,5.9,14.4,11.6
			c-2.1-0.8-16.5-3.6-17.9-3.8C68.3,402,66.2,401.9,64.8,400.8z"/>
		
			<linearGradient id="SVGID_3_" gradientUnits="userSpaceOnUse" x1="-66.7734" y1="801.76" x2="-42.1791" y2="801.76" gradientTransform="matrix(0.9959 -9.060000e-02 -9.060000e-02 -0.9959 201.5135 1192.8947)">
			<stop  offset="0" style="stop-color:#FFD99E"/>
			<stop  offset="0.9081" style="stop-color:#FFD99E"/>
			<stop  offset="1" style="stop-color:#FFD99E"/>
		</linearGradient>
		<path class="st10" d="M63.7,401.1c-0.4-0.3-0.7-0.7-1-1.2c-1.1-2-1-6.3,1.4-7.4c2.1-1,6.5,1.4,8.4,2.1c4.4,1.8,17.7,5.9,14.4,11.6
			c-2.1-0.8-16.5-3.6-17.9-3.8C67.3,402.3,65.1,402.2,63.7,401.1z"/>
		<path class="st7" d="M61.3,393.7c-0.4-0.3-0.8-0.8-1.1-1.3c-1.2-2.2-1.1-7,1.6-8.3c2.4-1.1,7.2,2.5,9.4,3
			c5.3,1.2,17.4,4.8,16.2,12.4c-2.3-1-18.5-4-20.1-4.3C65.3,395,62.9,394.9,61.3,393.7z"/>
		
			<linearGradient id="SVGID_4_" gradientUnits="userSpaceOnUse" x1="-69.7432" y1="809.3506" x2="-42.6824" y2="809.3506" gradientTransform="matrix(0.9959 -9.060000e-02 -9.060000e-02 -0.9959 201.5135 1192.8947)">
			<stop  offset="0" style="stop-color:#FFD99E"/>
			<stop  offset="0.9081" style="stop-color:#FFD99E"/>
			<stop  offset="1" style="stop-color:#FFD99E"/>
		</linearGradient>
		<path class="st11" d="M60.2,393.8c-0.4-0.3-0.8-0.8-1.1-1.3c-1.2-2.2-1.1-7,1.6-8.3c2.4-1.1,7.2,2.5,9.4,3
			c5.3,1.2,17.4,4.8,16.2,12.4c-2.3-1-18.5-4-20.1-4.3C64.2,395.1,61.8,395,60.2,393.8z"/>
		<path class="st7" d="M86.1,384.5c-2-2.6-6.2-3.6-9.1-5c-3.4-1.7-6.4-3.8-8.9-6.6c-1.5-1.6,0.9-2.8,2.3-3.3l-0.9-10l-2.9-3
			l-3.9,2.5c0,0-9.8,6.2-9.7,10.9c0.1,4.7,7.2,13.6,10.1,15c2.9,1.5,18.1,3.6,23.6,5c0.2,0,0.4-2.3,0.4-2.5
			C87.2,386.6,86.7,385.4,86.1,384.5z"/>
		
			<linearGradient id="SVGID_5_" gradientUnits="userSpaceOnUse" x1="-74.3566" y1="827.6167" x2="-41.9179" y2="827.6167" gradientTransform="matrix(0.9959 -9.060000e-02 -9.060000e-02 -0.9959 201.5135 1192.8947)">
			<stop  offset="0" style="stop-color:#FFD99E"/>
			<stop  offset="0.9081" style="stop-color:#FFD99E"/>
			<stop  offset="1" style="stop-color:#FFD99E"/>
		</linearGradient>
		<path class="st12" d="M75.9,379.6c-3.4-1.7-6.4-3.7-8.9-6.6c-2.1-2.3,3.4-3.6,3.4-3.6l-0.8-8.5l-4-4.3l-3.9,2.5
			c0,0-9.8,6.2-9.7,10.9c0.1,4.7,7.2,13.6,10.1,15c2.9,1.5,18.1,3.6,23.6,5c0.2,0,0.4-2.3,0.4-2.5c-0.1-1.1-0.5-2.3-1.2-3.2
			C83,382,78.7,381,75.9,379.6z"/>
		<path class="st7" d="M88,365.8c-1.7-2.7-4.2-4.9-6.5-7.1c-2.2-2.1-13-9.8-13-9.8s-9.2-10-12.1-8.1c-1.2,0.8-2.9,3.5-3.4,4.5
			c-2.7,6,1.6,8.6,6,11.3c5.5,3.4,10.1,6.9,14.6,11.5c2.9,2.4,5.9,4.8,9,7c2.1,1.5,6.8,8.1,8.6,1.4C92.3,373,90,369,88,365.8z"/>
		
			<linearGradient id="SVGID_6_" gradientUnits="userSpaceOnUse" x1="-73.3377" y1="841.6159" x2="-36.4647" y2="841.6159" gradientTransform="matrix(0.9959 -9.060000e-02 -9.060000e-02 -0.9959 201.5135 1192.8947)">
			<stop  offset="0" style="stop-color:#FFD99E"/>
			<stop  offset="0.9081" style="stop-color:#FFD99E"/>
			<stop  offset="1" style="stop-color:#FFD99E"/>
		</linearGradient>
		<path class="st13" d="M80.4,358.8c-2.3-2.3-11.8-10-11.8-10l-0.7-7.9c-7.8-2.3-9.5-2-12.5,0c-1.2,0.8-2.9,3.5-3.4,4.5
			c-2.7,6,1.6,8.6,6,11.3c5.5,3.4,10.1,6.9,14.6,11.5c2.9,2.4,5.9,4.8,9,7c2.1,1.5,6.8,8.1,8.6,1.4c1-3.6-1.3-7.6-3.3-10.8
			C85.2,363.2,82.7,361.1,80.4,358.8z"/>
		
			<linearGradient id="SVGID_7_" gradientUnits="userSpaceOnUse" x1="812.0778" y1="908.1978" x2="928.694" y2="908.1978" gradientTransform="matrix(0.9615 0.2747 0.2747 -0.9615 -618.3751 999.5029)">
			<stop  offset="0" style="stop-color:#FFD99E"/>
			<stop  offset="0.9081" style="stop-color:#FFD99E"/>
			<stop  offset="1" style="stop-color:#FFD99E"/>
		</linearGradient>
		<path class="st14" d="M508.2,380.4c0-2.1,0.1-8-0.1-8.9c-0.4-12.8-4.9-46,2.7-52.8l-4.6-1.3l-8.1,2.2l6.6-68.8l-28.4,7.7
			c0,0-7.2-20.5-18-15.3c0,0,2,13.1,2.2,14.4c0.6,4.7,3.4,8.8,3.9,13.5c0.6,6.2-1.4,13.3-2.3,19.4c-1.9,12.3,6.1,20.8,13.4,30.9
			c0.4,4.3-7.5,45.6-9.7,60.6c-1.6,10.9-4.9,21.4-7.2,32.1c-5.1-7.4-20.9-22.6-20.9-22.6l-43.4,29.1c0,0,67,75.2,89,73.4
			C505.3,492.3,508.1,393.8,508.2,380.4z"/>
		<path class="st8" d="M508.9,256.2l12.6-44l4.5,1.3l1-3.6l-33.1-9.5l-1,3.6l4.5,1.3l-12.6,44c-19.3,0.1-37,12.9-42.6,32.4
			c-6.8,23.7,7.5,48.6,30.7,55.2c23.7,6.8,48.4-7,55.2-30.7C533.5,286.7,525.2,266.6,508.9,256.2z"/>
		<path class="st15" d="M467.3,296.3l1.6,0.5C468.6,296.1,468,296,467.3,296.3z"/>
		<path class="st1" d="M446.9,283c-2.3,9.7-1,19.7,3.9,28.5c5.1,9.3,13.6,16,23.8,18.9c10.2,2.9,20.9,1.7,30.2-3.5
			c8.8-4.9,15.2-12.7,18.4-22.1L446.9,283z"/>
		<path class="st7" d="M530.2,308.2c0.3-0.4,0.5-0.8,0.6-1.4c0.5-2.2-0.6-6.3-3.2-6.8c-2.3-0.4-5.9,3-7.5,4.2
			c-3.8,2.9-13.7,8.9-10.9,14.9c-0.6-1.3,15-7.7,16.3-8.2C527,310.3,529.1,309.6,530.2,308.2z"/>
		
			<linearGradient id="SVGID_8_" gradientUnits="userSpaceOnUse" x1="6686.769" y1="3087.4045" x2="6710.8545" y2="3087.4045" gradientTransform="matrix(-0.9859 0.1676 -0.1676 -0.9859 7640.6367 2229.3564)">
			<stop  offset="0" style="stop-color:#FFD99E"/>
			<stop  offset="0.3182" style="stop-color:#FCD79C"/>
			<stop  offset="0.5716" style="stop-color:#F2CF95"/>
			<stop  offset="0.8019" style="stop-color:#E1C38A"/>
			<stop  offset="1" style="stop-color:#CCB37C"/>
		</linearGradient>
		<path class="st16" d="M529.6,307.1c0.3-0.4,0.5-0.8,0.6-1.4c0.5-2.2-0.6-6.3-3.2-6.8c-2.3-0.4-5.9,3-7.5,4.2
			c-3.8,2.9-13.7,8.9-10.9,14.9c-0.6-1.3,15-7.7,16.3-8.2C526.4,309.2,528.5,308.6,529.6,307.1z"/>
		<path class="st7" d="M532.5,299.8c0.3-0.4,0.6-0.9,0.7-1.5c0.6-2.4-0.7-7.1-3.6-7.6c-2.6-0.5-6.7,3.3-8.5,4.7
			c-4.3,3.2-15.4,10-12.3,16.8c-0.7-1.5,16.8-8.6,18.3-9.3C529,302.1,531.3,301.4,532.5,299.8z"/>
		
			<linearGradient id="SVGID_9_" gradientUnits="userSpaceOnUse" x1="6683.8057" y1="3095.0132" x2="6710.8643" y2="3095.0132" gradientTransform="matrix(-0.9859 0.1676 -0.1676 -0.9859 7640.6367 2229.3564)">
			<stop  offset="0" style="stop-color:#FFD99E"/>
			<stop  offset="0.3182" style="stop-color:#FCD79C"/>
			<stop  offset="0.5716" style="stop-color:#F2CF95"/>
			<stop  offset="0.8019" style="stop-color:#E1C38A"/>
			<stop  offset="1" style="stop-color:#CCB37C"/>
		</linearGradient>
		<path class="st17" d="M531.1,299.1c0.3-0.4,0.6-0.9,0.7-1.5c0.6-2.4-0.7-7.1-3.6-7.6c-2.6-0.5-6.7,3.3-8.5,4.7
			c-4.3,3.2-15.4,10-12.3,16.8c-0.7-1.5,16.8-8.6,18.3-9.3C527.5,301.4,529.8,300.8,531.1,299.1z"/>
		<path class="st7" d="M522.4,266.8c0,0,11,3.5,12.2,8.1c1.1,4.6-3.5,14.9-5.9,17.1c-2.5,2.2-17.5,6.5-21.5,10.9
			c-0.1,0.1-1-2.1-1-2.3c-0.2-1.1-0.1-2.4,0.3-3.4c1.2-3,5.1-5.1,7.5-7.1c2.8-2.5,10.9-8.8,10.5-12.5c-0.1-0.9-6-10-6-10l-0.4-2.2
			L522.4,266.8z"/>
		
			<linearGradient id="SVGID_10_" gradientUnits="userSpaceOnUse" x1="6679.165" y1="3113.1113" x2="6711.6021" y2="3113.1113" gradientTransform="matrix(-0.9859 0.1676 -0.1676 -0.9859 7640.6367 2229.3564)">
			<stop  offset="0" style="stop-color:#FFD99E"/>
			<stop  offset="0.3182" style="stop-color:#FCD79C"/>
			<stop  offset="0.5716" style="stop-color:#F2CF95"/>
			<stop  offset="0.8019" style="stop-color:#E1C38A"/>
			<stop  offset="1" style="stop-color:#CCB37C"/>
		</linearGradient>
		<path class="st18" d="M520.8,266.1c0,0,11,3.5,12.2,8.1c1.1,4.6-3.5,14.9-5.9,17.1c-2.5,2.2-17.5,6.5-21.5,10.9
			c-0.1,0.1-1-2.1-1-2.3c-0.2-1.1-0.1-2.4,0.3-3.4c1.2-3,5.1-5.1,7.5-7.1c2.8-2.5,10.9-8.8,10.5-12.5c-0.1-0.9-6-10-6-10l-0.4-2.2
			L520.8,266.1z"/>
		<path class="st7" d="M528.4,250.8c-4.7-4.4-11.7-2-15.7-0.6l-1.9,6.6c2.3,4-4.5,11-6.5,14.2c-1.6,2.7-3.5,5.4-4.5,8.5
			c-1.1,3.6-2.3,8-0.4,11.3c3.5,6.1,6.3-1.6,8-3.5c2.4-2.9,4.7-6,6.9-9.1c3.1-5.6,6.7-10.2,11.1-14.9
			C529.1,259.5,533.2,255.3,528.4,250.8z"/>
		
			<linearGradient id="SVGID_11_" gradientUnits="userSpaceOnUse" x1="6679.8687" y1="3126.4404" x2="6717.0796" y2="3126.4404" gradientTransform="matrix(-0.9859 0.1676 -0.1676 -0.9859 7640.6367 2229.3564)">
			<stop  offset="0" style="stop-color:#FFD99E"/>
			<stop  offset="0.3182" style="stop-color:#FCD79C"/>
			<stop  offset="0.5716" style="stop-color:#F2CF95"/>
			<stop  offset="0.8019" style="stop-color:#E1C38A"/>
			<stop  offset="1" style="stop-color:#CCB37C"/>
		</linearGradient>
		<path class="st19" d="M526.7,250.3c-4.7-4.4-11.7-2-15.7-0.6l-1.9,6.6c2.3,4-4.5,11-6.5,14.2c-1.6,2.7-3.5,5.4-4.5,8.5
			c-1.1,3.6-2.3,8-0.4,11.3c3.5,6.1,6.3-1.6,8-3.5c2.4-2.9,4.7-6,6.9-9.1c3.1-5.6,6.7-10.2,11.1-14.9
			C527.3,259,531.5,254.8,526.7,250.3z"/>
		<g>
			<path class="st20" d="M232,189.7c-1.4,20.4,0.5,40.9,10.2,59.5c8.7,16.6,24.7,32.6,22.9,52.8c-1.6,18.2-15.5,37.4-15.5,37.4
				L223.1,265c-4.6-9.6-17.5-27-22.1-36.5c-16.7-34.7-22.8-66-15.6-103.9c0,0,13.1-58.3,53.9-71.1C249.3,50.3,238.9,92.1,232,189.7z
				"/>
			<path class="st20" d="M368.3,138.9c-0.5,2.7,2.3,8.5,2.8,11.1c1.9,9.3,2.8,18.8,2.5,28.3c-1,32.7-20.9,58-36.5,85.2
				c-5.6,9.7-11.8,19.2-15.3,29.9c-3.6,11.3-3.7,23.2-5.4,34.8c-2.6,18.3-3.6,34.3,1,52.6c1.1,4.5,2.9,9.8,4.8,16.2
				c-11.2-20.8-21.6-45.7-25.1-69.1c-0.8-5.3-0.6-10.6-0.8-16c-1.2,2.3-1.5,5.2-1.8,7.8c-3.4-22.4,3.8-45.6,13.4-65.7
				c9.7-20.2,24.7-36.9,35-56.7c8-15.4,14.6-31.4,21.1-47.5C365.6,146.4,367.6,142.7,368.3,138.9z"/>
			<path class="st21" d="M418.7,188.4c-0.1-0.9-0.3-1.7-0.4-2.6c-1.5-8.4-4.8-15.5-8-23.2c-2.4-5.7-4.2-12.6-10.4-15.6
				c4.2,2,9.1,2.5,13.5,1.4c-6.2-8.7-12.3-17.5-17.9-26.5s-12.6-17.1-18-26.3c-10.9-18.8-18.2-40-35.2-54.5
				c-20.7-17.6-79.1-27.7-102.7-10.2c-2.3,1.7-12.9,5.3-15.2,6.6c-9.8,5.6-18.3,16.6-25.8,24.7c-5,5.4-11.4,11.3-13.9,18.2
				c-3.1,8.4-8.4,15.6-15,21.7c1.5,0.4,3,0.5,4.5,0.1c-0.8,4.5-2.2,8.1-3.6,12.3c-1.6,4.9-0.8,11.1-0.4,16.1
				c1,10.9,4.8,22.8,3.4,33.7c-1.1,8.6-5.8,18.2-9.6,25.9c2.6-1.2,5-2.8,7-4.8c-0.4,0.4,0.3,6.6,0.2,7.6c-0.3,2.8-1.1,5.3-2.1,7.9
				c-2.2,5.4-5,10.6-8,15.6c1.9-0.2,3.8-0.5,5.8-0.7c0.5-0.1-1.8,12.8-2,13.9c-0.9,4.5-1.1,8.8-1.4,13.4
				c-0.6,11.2-0.9,22.5-0.8,33.7c0.2,13.1-0.8,82.5,13.5,81.9c16.1-0.7,39.4-50.9,55.5-49.1c39.1,4.4,77.4,12.6,116.9,13.6
				c7.6,0.2,38.4,30.6,43.1,21.9c5.7-10.5,1.2-49.9,7.5-60c6.5-10.3,14.4-20.5,15.7-33.1c1.3-12.6,1.5-25.3,0.7-37.9
				c2.4,3.9,4.9,7.8,7.3,11.6c-1.4-2.3,0.7-11.9,0.7-14.8c0.1-5.1-1.5-7.9-3-12.5C419.6,195.1,419.2,191.7,418.7,188.4z"/>
			<g>
				<path class="st22" d="M288.7,289.7c11.5-10.8,26.2-26.6,26.2-32.1c0,0-48.4-16.9-73.6,3.5C244.1,276.4,266.9,303.6,288.7,289.7z
					"/>
			</g>
			<path class="st23" d="M388.2,617.4c-0.2-0.9-0.3-1.4-0.3-1.4s-4.2,0.6-11.1,1.4H388.2z"/>
			<path class="st23" d="M279.9,617.4c-1.5-0.4-2.9-0.8-4.2-1.2c-24.5-8.3-64.6-35.7-64.6-35.7c-5.2,8.1-10.2,16.4-15.3,24.7
				c-2.5,4.1-4.9,8.2-7.4,12.3L279.9,617.4L279.9,617.4z"/>
			<path class="st24" d="M279.9,617.4c-1.5-0.4-2.9-0.8-4.2-1.2c-1.5-0.5-3-1.1-4.6-1.7c0.1,1,0.2,2,0.3,2.9H279.9z"/>
			<path class="st24" d="M388.2,617.4c-0.2-0.9-0.3-1.4-0.3-1.4s-4.2,0.6-11.1,1.4H388.2z"/>
			<g>
				<path class="st8" d="M392.5,302.8c-12.9-4.1-63.4-19.2-70.6-27.4c-1,0.7-28,21.4-37.7,21.1c-1.1,0-12.6,0.8-13.4,0.1
					c-1.9,2,6.8,2.9,5.5,5.6c-3.4,6.7-4.4,14.3-6.1,21.5c-5,20.5-9.4,40.7-8.9,61.9c0.5,20.8,3.3,41.5,0.3,62.3
					c-1.5,10.4-1.4,76.4,5.5,153.8l26.6-2.8l42.9,40.2l66.7,10.4c0,0-2.3-11.7-9.1-54c-1.3-7.9-4.4-15-6-22.8
					c-6.8-31.9-11.2-65.2-12.9-98c-0.3-6.1-0.5-12.2-0.7-18.3c-0.4-10.8-2-22.4,0.1-33c0.4-1.9,4.2-14.8,2.6-15.8
					c15.1,9.6,22.2,29.2,38.1,38.3c2.2-2.2,19.1-22.1,40.3-38.5C458.2,390,392.5,302.8,392.5,302.8z"/>
			</g>
			<path class="st24" d="M279.9,617.4c-1.5-0.4-2.9-0.8-4.2-1.2c-24.5-8.3-64.6-35.7-64.6-35.7c-5.2,8.1-10.2,16.4-15.3,24.7
				c-2.5,4.1-4.9,8.2-7.4,12.3L279.9,617.4L279.9,617.4z"/>
			<path class="st24" d="M262,447.8c-1.5,10.4,5.1,92.2,12,169.6h19.9c6.2-134.8,7.5-293.4-6.9-310.4c-1.9-2.2-6.6-5.8-7.7-5.8
				c-0.8,0-1.7,0-2.5,0c0.1,0.3,0.2,0.6,0,1c-3.4,6.7-4.4,14.3-6.1,21.5c-5,20.5-9.5,40.7-8.9,61.9C262.3,406.4,265.1,427,262,447.8
				z"/>
			<path class="st8" d="M179.2,448.4c3.5,0.3,12.5,2.1,15.4,0.5c2.6-1.5,4.9-16.6,4.6-19.8c2,22.9-5.8,45-10.6,67.1
				c-1.2,5.7-1.8,11.6-3,17.2c-1.1,4.9-4.3,9.4-6.7,13.9c-5.4,10.2-10.3,20.8-13.4,31.9c-2.8,10.2-4.3,20.8-6.5,31.2
				c-2,9.4-3.5,18.9-4.2,28.5c-0.1,1.3-0.9,25.2-0.1,25.2l79.6-7.3l53.6-16.7c6.4-135.8,11.4-300.6-3.1-317.8
				c-1.9-2.2-6.6-5.8-7.7-5.8c-9.7,0-19.4,0.9-29.2,0.6c-8.6-0.3-21.9-10.7-28.4-14.9c-1-0.6-38.4,12.9-50.9,18.2
				c-15.9,6.8-34.9,138.1-31.3,140.8C142.5,445,172.1,447.7,179.2,448.4z"/>
			<g>
				<g>
					<path class="st25" d="M323.8,400.7c0,0-1.2-2.5-1.4-4.2l-1-37.1l0.3-0.4l-0.5-8h-0.1v-0.9l1.6-8.9c0,0,1.3-1.1,2.5-2.2
						c1.7-0.5,2.7-2.2,2.3-4c-0.4-1.8-2.2-2.8-4-2.4s-2.8,2.2-2.4,4c0.1,0.3,0.2,0.7,0.4,0.9l-1,2.6l-1.3,9.1l0.1,1.9l0,0v-1.9
						l-1.8-9.9l-1.6-1c0.3-0.6,0.3-1.3,0.1-2c-0.4-1.8-2.2-2.8-4-2.4s-2.8,2.2-2.4,4c0.1,0.4,0.3,0.8,0.5,1.1l0,0
						c0.6,0.8,1.5,1.3,2.5,1.4l2.2,1.2l2.4,9.3l0.3,4.4l0.2,3.8v0.1l2.8,38.3c0,0-0.6,2.5-1,2.5c0,0,0.3,4.5,2.3,4.5l-2.2-43.3
						l0.2,0.2l2,43.1C321.9,404.5,324.3,403.4,323.8,400.7z M323.9,333.5c1.2-0.3,2.5,0.4,2.8,1.7c0.3,1.2-0.4,2.5-1.7,2.8
						c-1.2,0.3-2.5-0.4-2.8-1.7C321.9,335.1,322.7,333.9,323.9,333.5z M313.4,339.3c-1.2,0.3-2.5-0.4-2.8-1.7
						c-0.3-1.2,0.4-2.5,1.7-2.8c1.2-0.3,2.5,0.4,2.8,1.7C315.4,337.7,314.7,339,313.4,339.3z"/>
					<path class="st25" d="M315,350.9l0.7,12.7h-0.2v0.8h0.2h0.8v-0.8l-0.8-13.9h-0.1h-0.8h-0.5l-0.1-2.2l0,0l-0.1-0.9l-0.1-1.9
						h-0.5l-0.1-1.8c-0.1-0.9-0.9-1.6-2-1.5c-1,0.1-1.8,0.8-1.8,1.7l0.1,1.8h-0.5l3.2,54.2l4.7,0.3l-2.8-48.5L315,350.9z"/>
				</g>
				<g>
					<g>
						<path class="st9" d="M316.5,338.6c0.3-0.6,0.3-1.3,0.1-2c-0.4-1.8-2.2-2.8-4-2.4s-2.8,2.2-2.4,4c0.1,0.4,0.3,0.8,0.5,1.1l0,0
							c0.6,0.8,1.5,1.3,2.5,1.4l2.2,1.2l2.4,9.3l3.4,46.7c0,0-0.6,2.5-1,2.5c0,0,0.3,4.5,2.3,4.5l-2.4-46.8l-0.2-8.6l-1.8-9.9
							L316.5,338.6z M312.9,335.2c1.2-0.3,2.5,0.4,2.8,1.7c0.3,1.2-0.4,2.5-1.7,2.8c-1.2,0.3-2.5-0.4-2.8-1.7
							C310.9,336.7,311.6,335.5,312.9,335.2z"/>
						<path class="st9" d="M328.2,335.3c-0.4-1.8-2.2-2.8-4-2.4s-2.8,2.2-2.4,4c0.1,0.3,0.2,0.7,0.4,0.9l-1,2.6l-1.3,9.1l2.6,55.4
							c0,0,2.4-1.1,1.9-3.9c0,0-1.2-2.5-1.4-4.2l-1.3-46.5l1.6-8.9c0,0,1.3-1.1,2.5-2.2C327.6,338.7,328.6,337,328.2,335.3z
							 M324.4,333.9c1.2-0.3,2.5,0.4,2.8,1.7c0.3,1.2-0.4,2.5-1.7,2.8c-1.2,0.3-2.5-0.4-2.8-1.7
							C322.5,335.4,323.2,334.2,324.4,333.9z"/>
						<polygon class="st26" points="317.9,351.5 318.4,359.5 320.5,361.7 322.3,359.3 321.8,351.3 						"/>
					</g>
				</g>
				<g>
					<g>
						<path class="st27" d="M314.1,343.2c-0.1-0.9-0.9-1.6-2-1.5l0,0c-1,0.1-1.8,0.8-1.8,1.7l0.3,5.5c0.1,0.9,0.9,1.6,2,1.5l0,0
							c1-0.1,1.8-0.8,1.8-1.7L314.1,343.2z"/>
						<polygon class="st28" points="317.9,399.7 314.7,344.9 310,345.2 313.2,399.4 						"/>
						
							<rect x="310" y="345.1" transform="matrix(0.9984 -5.647752e-02 5.647752e-02 0.9984 -19.0201 18.1923)" class="st29" width="4.7" height="1"/>
						<polygon class="st29" points="310.1,347.1 310.2,348 314.8,347.7 314.8,346.9 						"/>
					</g>
					<path class="st27" d="M313.5,350.9c0,0.4-0.3,0.8-0.8,0.8l0,0c-0.4,0-0.8-0.3-0.9-0.8l-0.1-1.2c0-0.4,0.3-0.8,0.8-0.8l0,0
						c0.4,0,0.8,0.3,0.8,0.8L313.5,350.9z"/>
					<path class="st27" d="M313.8,356.9c0.1,0.9-0.3,1.7-0.7,1.7l0,0c-0.4,0-0.8-0.7-0.9-1.6l-0.1-2.5c-0.1-0.9,0.3-1.7,0.7-1.7l0,0
						c0.4,0,0.8,0.7,0.9,1.6L313.8,356.9z"/>
				</g>
				<path class="st24" d="M306.1,354.7c0,0,18.5,0,48.6-0.4l0.9,42.5l-22.1,15.5l-25.1-13.1L306.1,354.7z"/>
				<path class="st8" d="M306.1,354.7c0,0,21,2.1,48.6-0.4l0.9,43.7l-22.1,15.5l-25.1-13.1L306.1,354.7z"/>
				<polygon class="st28" points="317.1,363.8 316.3,349.9 316.3,349.9 315.5,350 314.2,350 314.2,351.3 315.6,351.2 316.3,363.9 
					316.1,363.9 316.2,364.7 316.4,364.7 317.2,364.7 				"/>
			</g>
			<path class="st24" d="M184.7,349.7l-3.2,7.4l0.2,35.2l2.7,17.2c1.1,4.2,8.9,38.7,10.4,38.5c0.9-0.1,0.9-1.3,1.2-2.1
				c0.3-0.9,1.2-1.5,1.9-2.1c2.4-2.5,2.3-6.5,1.5-9.9c-1.7-7.2-5.3-13.7-7.3-20.8c-1.4-4.8-5.8-11.5-5-16.5
				C187.8,391.7,183.5,356,184.7,349.7z"/>
			<path class="st24" d="M380.8,399.7l-3.3-42.4l-3.2-7.5c2.1,11.1,0.2,24.1-0.5,35.2c-1.1,17.5-5.7,34.3-4.4,52
				c0.1,2,0.4,4.1,1.4,5.9c1.6-7.7,2.4-15.5,4.1-23.2c0.3-1.6,1.4-9.5,3.2-9.8c1.1-0.2,6.8,5.1,7.8,6c1,1,1.9,2.2,2.8,3.3
				c1.6,2.1,25,28.3,26.8,26.5c0.4-0.4,1.1-1.2,2.3-2.5C418.3,442.5,380.8,399.7,380.8,399.7z"/>
			<g>
				<g>
					
						<ellipse transform="matrix(0.7438 -0.6684 0.6684 0.7438 -145.6271 269.4479)" class="st24" cx="278.7" cy="324.7" rx="6.3" ry="6.3"/>
					<g>
						
							<ellipse transform="matrix(0.7437 -0.6685 0.6685 0.7437 -146.4651 267.3734)" class="st24" cx="275.5" cy="324.7" rx="1.6" ry="1.6"/>
					</g>
					<g>
						
							<ellipse transform="matrix(0.7443 -0.6679 0.6679 0.7443 -144.7652 271.2916)" class="st24" cx="281.9" cy="324.7" rx="1.6" ry="1.6"/>
					</g>
				</g>
				<g>
					
						<ellipse transform="matrix(0.7438 -0.6684 0.6684 0.7438 -145.479 268.9303)" class="st8" cx="278.1" cy="324.2" rx="6.3" ry="6.3"/>
					<g>
						
							<ellipse transform="matrix(0.7441 -0.6681 0.6681 0.7441 -146.2793 266.6263)" class="st24" cx="274.9" cy="324.2" rx="1.6" ry="1.6"/>
					</g>
					<g>
						
							<ellipse transform="matrix(0.7443 -0.6678 0.6678 0.7443 -144.5903 270.7166)" class="st24" cx="281.3" cy="324.2" rx="1.6" ry="1.6"/>
					</g>
				</g>
			</g>
			<g>
				<g>
					
						<ellipse transform="matrix(0.7439 -0.6683 0.6683 0.7439 -287.5956 325.3714)" class="st24" cx="280.7" cy="537.9" rx="6.3" ry="6.3"/>
					<g>
						
							<ellipse transform="matrix(0.7435 -0.6688 0.6688 0.7435 -288.5338 323.6167)" class="st24" cx="277.6" cy="537.9" rx="1.6" ry="1.6"/>
					</g>
					<g>
						
							<ellipse transform="matrix(0.7435 -0.6688 0.6688 0.7435 -286.8863 327.8838)" class="st24" cx="283.9" cy="537.9" rx="1.6" ry="1.6"/>
					</g>
				</g>
				<g>
					<path class="st8" d="M284.3,542c2.6-2.3,2.8-6.3,0.5-8.8c-2.3-2.6-6.3-2.8-8.8-0.5c-2.6,2.3-2.8,6.3-0.5,8.8
						C277.8,544.1,281.7,544.3,284.3,542z"/>
					<g>
						
							<ellipse transform="matrix(0.7433 -0.6689 0.6689 0.7433 -288.4179 323.1754)" class="st24" cx="276.9" cy="537.4" rx="1.6" ry="1.6"/>
					</g>
					<g>
						
							<ellipse transform="matrix(0.7433 -0.669 0.669 0.7433 -286.7525 327.5142)" class="st24" cx="283.4" cy="537.4" rx="1.6" ry="1.6"/>
					</g>
				</g>
			</g>
			<g>
				<g>
					
						<ellipse transform="matrix(0.7439 -0.6683 0.6683 0.7439 -213.7492 297.0689)" class="st24" cx="280.7" cy="427.4" rx="6.3" ry="6.3"/>
					<g>
						
							<ellipse transform="matrix(0.7435 -0.6688 0.6688 0.7435 -214.6376 295.2625)" class="st24" cx="277.6" cy="427.4" rx="1.6" ry="1.6"/>
					</g>
					<g>
						
							<ellipse transform="matrix(0.7435 -0.6688 0.6688 0.7435 -212.9887 299.5302)" class="st24" cx="283.9" cy="427.4" rx="1.6" ry="1.6"/>
					</g>
				</g>
				<g>
					<path class="st8" d="M284.3,431.5c2.6-2.3,2.8-6.3,0.5-8.8c-2.3-2.6-6.3-2.8-8.8-0.5c-2.6,2.3-2.8,6.3-0.5,8.8
						C277.8,433.6,281.7,433.8,284.3,431.5z"/>
					<g>
						
							<ellipse transform="matrix(0.7433 -0.669 0.669 0.7433 -214.4944 294.8716)" class="st24" cx="277" cy="426.9" rx="1.6" ry="1.6"/>
					</g>
					<g>
						
							<ellipse transform="matrix(0.7433 -0.669 0.669 0.7433 -212.844 299.1403)" class="st24" cx="283.3" cy="426.9" rx="1.6" ry="1.6"/>
					</g>
				</g>
			</g>
			<g>
				<path class="st30" d="M311.7,429.3l-0.1,0.1c0.1-0.2,0.1-0.3,0.2-0.5c0.1-0.1,0.1-0.3,0.2-0.4l0.1,0.5
					C312,429.1,311.9,429.2,311.7,429.3z"/>
			</g>
			
				<linearGradient id="SVGID_12_" gradientUnits="userSpaceOnUse" x1="248.5987" y1="923.55" x2="311.6" y2="923.55" gradientTransform="matrix(1 0 0 -1 0 1194)">
				<stop  offset="0" style="stop-color:#FFD99E"/>
				<stop  offset="0.9081" style="stop-color:#FFD99E"/>
				<stop  offset="1" style="stop-color:#FFD99E"/>
			</linearGradient>
			<path class="st31" d="M309.9,247.2L309.9,247.2c-0.2-2.8-0.3-5.6-0.4-8.3l0,0c0-0.9-0.1-1.8-0.1-2.7H254c0,0.3,0,0.7,0,1
				c0,10.1-5.5,29.7-5.4,30c0.3,1.7,0.8,3.5,1.3,5.1c1.8,6,4.6,11.4,9.2,15.5c6.3,5.7,14,8.8,20.9,13.5c0.3,0.2,4.4,3.2,4.2,3.4
				c5-5.9,10.5-11.4,15.6-17.2c3.7-4.2,6.9-8.7,10-13.3c0.7-1,1.4-2,1.8-3.2C311.6,271,310.6,259.5,309.9,247.2z"/>
			<linearGradient id="SVGID_13_" gradientUnits="userSpaceOnUse" x1="254" y1="250.15" x2="310" y2="250.15">
				<stop  offset="0" style="stop-color:#FFD99E"/>
				<stop  offset="0.9081" style="stop-color:#FFD99E"/>
				<stop  offset="1" style="stop-color:#FFD99E"/>
			</linearGradient>
			<path class="st32" d="M254,236.2c0,1.5,0,3.2,0,4.8c1.4,1.6,2.6,3.4,3.8,5.1c3.5,5.2,4.8,6.6,9.9,10.4c4.3,3.2,8.4,6.1,13.5,7.5
				c-0.1-0.1,1.4,0.2,1.5,0.2c0.6,0,1.1,0.1,1.7,0.1c0,0,1.9-0.2,2.5-0.4c0.9-0.2,1.7-0.5,3.1-1.2c0.3-0.2,2.8-1.6,2.1-1.1
				c4.7-3.2,8.7-7.2,13.1-10.9c1.6-1.3,3.2-2.5,4.8-3.7c-0.2-3.7-0.4-7.5-0.5-11H254V236.2z"/>
			<path class="st24" d="M341.9,286.3c-4.3-6.1-27-26.3-27-26.3c-0.1,6-15.4,20.2-27.6,31.7c-20.2-5.6-42.5-15.3-43-30.6L214.4,285
				c0,0,45.8,56.5,105.5,13.3l0,0C333.3,292.6,341.9,286.3,341.9,286.3z"/>
			<path class="st8" d="M274,304.9c0,0-0.7-1.9,1.6-4.3c10.1-10.6,39.3-34.7,39.4-42.9c0,0,22.7,20.3,27,26.3
				C341.9,284,310.1,307.1,274,304.9z"/>
			<path class="st24" d="M289.6,287.2c-5.6,5.2-10.8,10-14,13.4c-2.3,2.4-1.6,4.3-1.6,4.3c18.9,1.1,36.7-4.6,49.3-10.4
				C317.8,293.7,303.8,291.5,289.6,287.2z"/>
			<path class="st8" d="M214.4,282.7c0,0,45.8,56.5,105.5,13.3c0,0-74.6-9-75.6-37.2L214.4,282.7z"/>
			<g>
				<path class="st33" d="M332.4,134.1l0.1,0.6C332.5,134.5,332.5,134.3,332.4,134.1z"/>
			</g>
			<g>
				<path class="st34" d="M276.4,237.7C276.4,237.7,276.4,237.6,276.4,237.7c0.6,0.4,1.3,1,2,1.6c-0.8-0.3-1.6-0.7-2.2-1.2
					c0,0,0-0.1-0.1-0.1C276.2,237.9,276.3,237.8,276.4,237.7z"/>
				<path class="st35" d="M276.4,237.6c0.6,0.5,1.3,1,2.1,1.6c-0.7-0.3-1.4-0.6-2-1C276.4,238,276.4,237.8,276.4,237.6z"/>
				<g>
					<g>
						
							<linearGradient id="SVGID_14_" gradientUnits="userSpaceOnUse" x1="2676.3013" y1="965.2762" x2="2676.3013" y2="577.4161" gradientTransform="matrix(-0.9956 9.390000e-02 -9.390000e-02 -0.9956 3028.9414 726.6827)">
							<stop  offset="0" style="stop-color:#FFD99E"/>
							<stop  offset="0.9081" style="stop-color:#FFD99E"/>
							<stop  offset="1" style="stop-color:#FFD99E"/>
						</linearGradient>
						<path class="st36" d="M354.2,150.2c1.2,35.5-10.9,73.1-40.4,95.5c-31.8,24.1-64.2-1.8-78.8-27.9
							c-9.3-16.6-15.4-43.8-16.1-62.7c-1.8-53.2,27-97.4,64.3-98.8C320.6,55,352.3,97,354.2,150.2z"/>
					</g>
				</g>
				<path class="st37" d="M280.5,201.3c0,0,1.5,3.5,2.3,6l9-0.3c0,0-0.4-4.6,1.3-6.9C293,200.1,288.7,204.3,280.5,201.3z"/>
				<g>
					<path class="st38" d="M287.5,220.5c0,0-2.8,0.3-6.4,0c4.2,1.1,8.1,0.6,11.5-0.6C290.9,220.3,289.2,220.5,287.5,220.5z"/>
					<path class="st39" d="M287.5,220.5c1.8,0,3.5-0.2,5.1-0.6c4.3-1.5,7.8-4,9.5-5.5c-1.8,0.3-3.5,0.3-3.5,0.3
						c-2.3-0.7-6.3-0.6-6.3-0.6c-3.4,0.5-4.5,2.3-4.5,2.3l-1.2-0.7c-3.6-3.2-9.2,0.8-9.2,0.8c-0.8,0.6-1.8,0.8-2.7,0.9
						c2.2,1.5,4.3,2.5,6.4,3.1C284.7,220.8,287.5,220.5,287.5,220.5z"/>
					<path class="st40" d="M274.6,217.4c-0.4-0.3-0.7-0.5-1.1-0.8c0,0,0.1,0.3,0.4,0.9C274.1,217.4,274.4,217.4,274.6,217.4z"/>
				</g>
				<path class="st41" d="M277.7,225.3c2.9,1.9,6.1,3.8,9.7,3.8c3.2,0.1,6.3-1.5,8.7-3.6c2.5-2.2,4.4-5.1,6.4-7.7
					c0.7-0.9,3.4-6.4,4.7-6.3c-3.3-0.4-6.6,1.1-9.9,1.4c-3.1,0.3-5.6,0-8.6,1.1c-0.6,0.2-0.8,1-1.4,1.1s-2.1-0.6-2.8-0.7
					c-2.3-0.4-4.8-0.1-7,0.5c-3.2,1-7-0.2-10.2-0.6c1.2,1.4,2.3,2.8,3.5,4.1C272.6,220.8,275,223.5,277.7,225.3z M300.4,215.7
					c-1.9,1.4-4.7,3.1-8,4.3c-0.2,0.1-0.4,0.1-0.5,0.2h-0.1c-0.6,0.2-1.3,0.4-1.9,0.5h-0.1c-0.2,0-0.4,0.1-0.5,0.1s-0.1,0-0.2,0
					c-0.2,0-0.3,0.1-0.5,0.1c-0.1,0-0.2,0-0.2,0c-0.2,0-0.3,0-0.4,0s-0.2,0-0.2,0c-0.1,0-0.3,0-0.4,0s-0.2,0-0.2,0
					c-0.2,0-0.3,0-0.5,0c-0.1,0-0.1,0-0.2,0c-0.2,0-0.4,0-0.7,0c-0.1,0-0.2,0-0.3,0c-0.1,0-0.3,0-0.4,0s-0.2,0-0.3,0
					c-0.1,0-0.3,0-0.4,0s-0.2,0-0.3,0c-0.1,0-0.3,0-0.4,0s-0.2,0-0.3,0c-0.1,0-0.3,0-0.4-0.1c-0.1,0-0.2,0-0.3,0
					c-0.2,0-0.3-0.1-0.5-0.1c-0.1,0-0.1,0-0.2,0c-0.2-0.1-0.5-0.1-0.7-0.2c-1.5-0.4-3-1-4.5-1.9c5.5,1.3,10.9,0.7,10.9,0.7
					C292.6,219.3,297.2,217.5,300.4,215.7z"/>
				<path class="st42" d="M326.3,170.2c-0.2-0.3-5.7-6.6-19.7-0.2l-1.6-2.6c17.1-7.8,24.3,1,24.4,1.1L326.3,170.2z"/>
				<circle class="st42" cx="316.8" cy="168" r="3.2"/>
				<path class="st42" d="M263.3,170.5c-0.2-0.3-5.7-6.6-19.7-0.2l-1.6-2.6c17.1-7.8,24.3,1,24.4,1.1L263.3,170.5z"/>
				<circle class="st42" cx="253.8" cy="168.3" r="3.2"/>
			</g>
			<g>
				<path class="st21" d="M351.6,149.2c0.5-3.3,0.9-6.6,1.3-10c1-8.9,1.5-14.9,1.3-23.2c-0.1-4.2-0.3-8.4-0.8-12.5
					c-0.2-1.9-0.5-3.8-0.8-5.7c0-0.2-0.1-0.4-0.1-0.5c0-0.2-0.1-0.4-0.2-0.7c-0.2-0.9-0.4-1.8-0.6-2.8c-0.9-4-2.1-7.9-3.5-11.7
					c0-0.1-1.1-2.6-0.5-1.4c-0.3-0.8-0.7-1.5-1-2.2c-0.8-1.6-1.6-3.2-2.5-4.7s-1.9-3.1-2.9-4.5c-0.3-0.4-0.6-0.8-0.9-1.2
					c-0.2-0.3-0.7-0.9-0.9-1.1c-2-2.4-4.1-4.7-6.3-6.8c-1.3-1.3-2.7-2.5-4.1-3.7c-0.6-0.5-1.2-1-1.8-1.5c-0.1-0.1-1.2-0.9-1.2-1
					c-2.4-1.7-4.8-3.4-7.3-4.9c-5.7-3.5-11.6-6.5-17.6-9.1c-1.5-0.6-3-1.3-4.6-1.9c-0.3-0.1-1.3-0.5-1.3-0.5
					c-0.7-0.3-1.4-0.5-2.2-0.8c-2.8-1-5.7-1.9-8.6-2.6c-3.8-1-13.3-0.4-13,0.7c-0.7,0.2-1.3,0.3-1.6,0.4c-5.8,0.9-11.4,2.9-17.1,4.9
					c-6.9,2.5-14,4.6-20.4,8.9c-6.1,4.1-12.3,9.6-17.3,15.6c-4.8,5.8-12.4,11.3-13.7,19.4c-2.8,16.9-0.3,38.5,2.2,55.7
					c0.7,5.1,2.5,11.5,5.8,15.2c-1.3-1.5-1-6.3-1-8.2c0-8.3,3.2-14.6,7.1-21.1c3.9-6.4,7.6-12.3,10.1-19.8
					c1.8-5.2,4.8-12.9,3.6-18.7c0,0,5.8,26.4,18.2,40.9c6.6,7.8,12.3,7.5,12.3,7.5s-8-7.7-6.9-25.2c0,0,13.9,32.3,44.4,32.3
					c-7-6.2-15-13.9-19-23.4c-3.2-7.4-4.5-16-7.1-23.7c7.9,22.1,37.8,26.9,52,43.7c0.9,1.1,3.8,4,4.5,5.9l-4.1-21.2
					c0,0,15,12.9,15,20.7c0,4,2.7-13.3-4.4-37.2C342.2,121.6,349,136.2,351.6,149.2z"/>
				<path class="st33" d="M334.5,133l0.1,0.6C334.6,133.4,334.6,133.2,334.5,133z"/>
			</g>
			<g>
				<g>
					<g>
						<defs>
							<filter id="Adobe_OpacityMaskFilter" filterUnits="userSpaceOnUse" x="207.9" y="125.1" width="157.6" height="67.2">
								<feFlood  style="flood-color:white;flood-opacity:1" result="back"/>
								<feBlend  in="SourceGraphic" in2="back" mode="normal"/>
							</filter>
						</defs>
						<mask maskUnits="userSpaceOnUse" x="207.9" y="125.1" width="157.6" height="67.2" id="SVGID_15_">
							<g class="st43">
							</g>
						</mask>
						<g class="st44">
							<path class="st45" d="M247.9,191.8c-14.7,0-30.3-8.9-39.5-15.2v-44.2c23.3-4.5,48.7-6.8,75.5-6.8c39,0,70.3,4.9,81.2,6.8
								v42.8c-7.8,10.2-27.5,16.5-42.1,16.5c-1.8,0-3.5-0.1-4.9-0.3c-9.5-1.3-16-16.8-19.1-24.2c-0.8-1.9-1.4-3.3-2-4.4
								c-2.5-4.6-6.5-7.2-11.3-7.2c-2.2,0-4.6,0.5-7.1,1.5c-6.3,2.5-9.7,11.4-12.1,17.9c-0.4,1-0.7,1.9-1,2.6
								c-3.4,8.2-6.1,12.5-11.9,13.5C251.6,191.7,249.7,191.8,247.9,191.8z"/>
							<path class="st46" d="M247.9,192.3c-14.4,0-29.6-8.3-39.8-15.3c-0.1-0.1-0.2-0.2-0.2-0.4v-44.2c0-0.2,0.2-0.4,0.4-0.5
								c23.4-4.5,48.8-6.8,75.6-6.8c38.7,0,69.7,4.8,81.2,6.8c0.2,0,0.4,0.2,0.4,0.5v42.8c0,0.1,0,0.2-0.1,0.3
								c-8,10.5-27.9,16.7-42.5,16.7c-1.8,0-3.5-0.1-5-0.3c-9.7-1.3-16.4-17-19.5-24.5c-0.8-1.8-1.4-3.3-1.9-4.3
								c-2.4-4.4-6.2-6.9-10.9-6.9c-2.1,0-4.5,0.5-6.9,1.5c-6.1,2.4-9.4,11.2-11.8,17.6c-0.4,1-0.7,1.9-1,2.7
								c-3.4,8.4-6.3,12.8-12.3,13.8C251.6,192.1,249.8,192.3,247.9,192.3z M208.8,176.3c8.3,5.7,24.2,15,39,15
								c1.8,0,3.6-0.1,5.3-0.4c5.6-1,8.3-5.2,11.6-13.2c0.3-0.7,0.6-1.6,1-2.6c2.5-6.6,5.9-15.6,12.4-18.2c2.6-1,5.1-1.6,7.3-1.6
								c5,0,9.2,2.6,11.8,7.4c0.6,1.1,1.2,2.6,2,4.4c3.1,7.4,9.6,22.7,18.8,23.9c1.5,0.2,3.1,0.3,4.9,0.3c14.3,0,33.7-6,41.6-16.2
								v-42.2c-11.8-2.1-42.5-6.7-80.7-6.7c-26.6,0-51.8,2.2-75,6.7L208.8,176.3L208.8,176.3z"/>
						</g>
						<path class="st8" d="M203.3,127.9v51.7c13.8,9.9,33.8,20.1,50.8,17.2c8.7-1.5,12.5-8.8,15.7-16.7c2-4.8,5.2-15.6,10.3-17.6
							c5.3-2.1,9.8-1.7,12.4,3.2s10.2,29.3,24.8,31.3c14.7,2,42.9-4.6,52.7-19.8V128C370,127.9,287.2,110.6,203.3,127.9z M365,175.3
							c-7.8,10.2-27.5,16.5-42.1,16.5c-1.8,0-3.5-0.1-4.9-0.3c-9.5-1.3-16-16.8-19.1-24.2c-0.8-1.9-1.4-3.3-2-4.4
							c-2.5-4.6-6.5-7.2-11.3-7.2c-2.2,0-4.6,0.5-7.1,1.5c-6.3,2.5-9.7,11.4-12.1,17.9c-0.4,1-0.7,1.9-1,2.6
							c-3.4,8.2-6.1,12.5-11.9,13.5c-1.7,0.3-3.5,0.5-5.4,0.5c-14.7,0-30.3-8.9-39.5-15.2v-44.2c23.3-4.5,48.7-6.8,75.5-6.8
							c39,0,70.3,4.9,81.2,6.8v43H365z"/>
					</g>
					<path class="st9" d="M371.3,133.1v5.6c-20.2-4.6-41.3-7.5-63-8.6c-18.7-1-37.9-0.6-56.9,1c-24.7,2.1-42.5,5.9-50,7.7v-6.6H196
						v15.2h5.4v-2.8c5.2-1.3,24-5.6,50.8-8c28.6-2.5,72.3-3.1,119,7.9v3.8h5.4v-15.2L371.3,133.1L371.3,133.1z"/>
				</g>
			</g>
		</g>
	</g>
	<g>
		<path class="st47" d="M399.5,666.8v56.6c1.3-2.6,2.5-5.2,3.5-7.8C407.6,703.5,405.4,684.8,399.5,666.8z"/>
		
			<linearGradient id="SVGID_16_" gradientUnits="userSpaceOnUse" x1="143.8652" y1="292.5884" x2="405.5572" y2="292.5884" gradientTransform="matrix(1 0 0 -1 0 1194)">
			<stop  offset="0" style="stop-color:#FFD99E"/>
			<stop  offset="0.9081" style="stop-color:#FFD99E"/>
			<stop  offset="1" style="stop-color:#FFD99E"/>
		</linearGradient>
		<path class="st48" d="M390.2,1045.3c-7.8-23.8-6.7-53.1-9.8-78.1c-5.2-42.4-10.2-84.7-14.4-127.2c-3.9-39.9-26.1-75.3-49.1-104.9
			c-29.2-37.6-63.4-64.7-100.8-91.5c-2.4-1.7-22.5-19.4-22.8-19.1c-31.1,26.6-66.4,89.6-40.4,128.3c23.3,34.7,85.6,1.4,119.1,27.4
			c8.7,6.8,12.3,28.8,13.6,40.5c3.4,31.5,10.1,63.5,21.7,92.6c10.8,27.3,26.8,52.8,37.2,79.8c13.6,35.3,17.3,75,12.5,112.8
			c-3.9,31.3,2,49.7,12.7,61.6c10.8,11.9,33.3,10.8,33.3,10.8s1.5-21.6,2.5-34.6C406.5,1130.6,394.1,1057.1,390.2,1045.3z"/>
	</g>
	
		<linearGradient id="SVGID_17_" gradientUnits="userSpaceOnUse" x1="146.8239" y1="317.8021" x2="404.4359" y2="317.8021" gradientTransform="matrix(1 0 0 -1 0 1194)">
		<stop  offset="0" style="stop-color:#FFD99E"/>
		<stop  offset="0.9081" style="stop-color:#FFD99E"/>
		<stop  offset="1" style="stop-color:#FFD99E"/>
	</linearGradient>
	<path class="st49" d="M371.7,624.3c0,0-93.3,27.7-103.1,50.4c-9.8,22.7-72.4,239.8-73.4,257.1c-1,17.3-41.1,159.9-43.1,164.2
		c-2,4.3-10.8,19.4,0,28.1c10.8,8.6,31.3,2.2,36.2-8.6c4.9-10.8,8.8-25.9,6.8-32.4s10.8-42.1,11.7-51.9c1-9.7,10.8-44.7,16.6-57.6
		c21.1-46.6,57.7-79,77.6-126c8.5-20,13.7-45,34.3-52.2c46.2-16.2,80.7-57.6,65.5-114.4C395.6,660.7,387.5,637.5,371.7,624.3z"/>
	<path class="st8" d="M402.1,721.8c9.4-27.4-4.3-100.6-25.8-118.6C358.1,588,168,560.1,167.9,560.3c-21,39.5-47,138.7-24.4,185.8
		c23.9,49.8,90.2,13.8,126.2,42.8c9.4,7.6,15.2,19.8,16.6,32.8c3.7,35,10.9,70.8,23.3,103.2c11.7,30.5,28.8,58.8,40,88.9
		c4.9,13.1,1.6,24.3,4.2,38.3c1.6-0.8,33.3,3.9,40.9,0c1.5-0.8-4.4-50.5-6.4-67c-5.6-47.2-10.9-94.3-15.5-141.7
		c-2.3-24-10.3-46.6-21.1-67.4l14.7,0.6C366.5,776.5,392.7,749.1,402.1,721.8z"/>
	<g>
		<path class="st50" d="M320.1,714.2c-15.9-19.2-33.2-35.7-51.6-50.8c-6.2,16.7-18.6,54.8-31.5,96.5c12.1,1.3,23.5,4.1,32.8,10.9
			c9.4,6.9,15.2,17.9,16.6,29.7c1.9,17,4.9,34.1,9.2,50.8c4-6.6,7.6-13.5,10.9-20.6c9.1-20.2,14.7-45.4,36.9-52.7
			c5.3-1.7,10.4-3.8,15.4-6C348.5,750.9,334.4,731.6,320.1,714.2z"/>
	</g>
	<path class="st51" d="M351.8,775.9l14.7,0.6c0,0,26.2-27.4,35.6-54.7c8.1-23.7-1-81.6-17.6-108.5c-0.5-0.4-0.9-0.8-1.4-1.3
		c0,0-100.4,30.9-110.9,56.1c-4.3,10.3-18,56.5-32.9,109c11.2,1.5,21.7,4.8,30.4,11.8c9.4,7.6,15.2,19.8,16.6,32.8
		c2.1,20.6,5.5,41.4,10.5,61.6c3.8-7.3,7.3-14.9,10.6-22.7c9.1-22.3,14.7-50.1,36.9-58.2c5.7-2.1,11.2-4.5,16.5-7.3
		C358,788.7,355,782.2,351.8,775.9z"/>
	<path class="st51" d="M351.8,775.9l10.6,0.4c5.3-3.7,10.2-7.7,14.7-12.1c8.4-10.5,19.6-26.5,25.1-42.4c5.5-16,3.1-47.7-4.2-74.9
		c-5.7-17.4-2-23.8-14.8-34.9c0,0-112.1,20.1-122.7,45.4C256,668.3,240.8,719.6,225,776c16.5,0.7,32.5,3,44.8,13
		c9.4,7.6,15.2,19.8,16.6,32.8c1.3,12.4,3,24.9,5.3,37.3c1.4-3,2.7-6.1,4-9.2c9.1-22.3,14.7-50.1,36.9-58.2
		c7.7-2.8,15.1-6.3,22-10.3C353.6,779.6,352.7,777.7,351.8,775.9z"/>
	<path class="st8" d="M407.9,666.3c-5.8-22.5-3.2-54.2-20-92.1c0,0-112,59.9-122.5,85.2s-77.9,267.1-79,286.4
		c-0.5,8.4-8.9,43.3-18.5,80.4c6,12.2,38.4,19.1,39.2,19.4c3.8-16.2,8.5-39.5,13.1-50.1c22.7-51.9,58.8-91.2,80.2-143.5
		c9.1-22.3,14.7-50.1,36.9-58.2C387.1,775.7,424.3,729.5,407.9,666.3z"/>
	<path d="M404,1123.4c1.7,3.8,3.1,7.8,4.5,11.8c2.6,7.5,4.7,15.3,5.7,23.2c0.7,5.4,0.4,11.7-1.5,16.8c-0.7,1.7-1.4,3.6-3.1,4.5
		c-1.7,0.8-3.7,0.8-5.5,0.9c-9.4,0.7-18.7-0.7-27-5.3c-2.5-1.4-4.9-2.9-7.2-4.5c-4.4-3.1-9.2-6.6-12-11.3c-1.5-2.5-2.7-5.6-3.1-8.5
		c-2-11.9-4.2-33.3,1.9-40.2c1.3,7,21.1,42.8,37.3,44.4C405.7,1156.6,403.7,1136,404,1123.4z"/>
	<path d="M152.1,1096c0,0-32,39.4-10.9,52.9c0,0,37.7,6.8,52.3-16.2c0,0,12.7-27.2,1.2-37.2c0,0-19.8,28.2-36.9,25.7
		C149.2,1120,150,1103.3,152.1,1096z"/>
</g>
</svg>
