<?xml version="1.0" encoding="utf-8"?>
<!-- Generator: Adobe Illustrator 19.0.0, SVG Export Plug-In . SVG Version: 6.00 Build 0)  -->
<svg version="1.1" class="slider_marker" id="Layer_1" xmlns="http://www.w3.org/2000/svg" xmlns:xlink="http://www.w3.org/1999/xlink" x="0px" y="0px"
	 viewBox="39.7 19.9 36.4 46.3" style="enable-background:new 39.7 19.9 36.4 46.3;" xml:space="preserve">
<style type="text/css">
	svg.slider_marker .st0{fill:#98C13D;stroke:#FFFFFF;stroke-width:2;stroke-miterlimit:10;}
</style>
<path class="st0" d="M65.7,29c-1.3-1.6-2.6-3-3.8-4.2c-2.3-2.4-4-3.8-4-3.8s0,0-0.1,0c-0.4,0.4-3.4,3-6.7,6.8
	c-0.3,0.4-0.7,0.8-1,1.2c-0.3,0.4-0.6,0.7-0.9,1.1c-2.6,3.2-5.1,6.9-6.7,10.6c-1,2.3-1.6,4.7-1.6,7c0,4.2,1.5,8,3.9,11
	c0.3,0.4,0.7,0.8,1.1,1.2c0.3,0.3,0.6,0.6,0.9,0.9c3,2.6,6.9,4.2,11.1,4.2c0.2,0,0.4,0,0.5,0c2.9-0.1,5.7-0.9,8-2.4
	c1.3-0.7,2.4-1.7,3.4-2.7c0.4-0.4,0.7-0.8,1.1-1.2c2.4-3,3.9-6.8,3.9-11c0-2.3-0.6-4.6-1.6-7c-1.6-3.8-4.1-7.5-6.7-10.6
	C66.3,29.8,66,29.4,65.7,29z"/>
</svg>
