<?xml version="1.0" encoding="utf-8"?>
<!-- Generator: Adobe Illustrator 19.0.0, SVG Export Plug-In . SVG Version: 6.00 Build 0)  -->
<svg version="1.1" class="timer" xmlns="http://www.w3.org/2000/svg" xmlns:xlink="http://www.w3.org/1999/xlink" x="0px" y="0px"
	 viewBox="0 0 169.2 169.2" style="enable-background:new 0 0 169.2 169.2;" xml:space="preserve">
<style type="text/css">
	svg.timer .st0{fill:#DEDDDD;}
	svg.timer .st1{fill:none;stroke:#FFFFFF;stroke-width:3;stroke-miterlimit:10;}
	svg.timer .st2{fill:#FFFFFF;}
	svg.timer .st3{fill:none;stroke:#9AC33D;stroke-width:30;stroke-miterlimit:10;}
</style>
<g id="timer_bg">
	<circle id="XMLID_4_" class="st0" cx="85.7" cy="83.9" r="72.5"/>
	<circle id="XMLID_32_" class="st1" cx="85.7" cy="83.9" r="69.5"/>
	<circle id="XMLID_5_" class="st2" cx="85.7" cy="83.9" r="47.2"/>
	
		<rect id="XMLID_29_" x="114.5" y="22.8" transform="matrix(-0.8654 -0.5011 0.5011 -0.8654 201.3703 116.3535)" class="st2" width="3.7" height="16.7"/>
	
		<rect id="XMLID_28_" x="53" y="129" transform="matrix(-0.8654 -0.5011 0.5011 -0.8654 33.5153 283.5726)" class="st2" width="3.7" height="16.7"/>
	
		<rect id="XMLID_22_" x="53.1" y="22.8" transform="matrix(-0.8661 0.4999 -0.4999 -0.8661 118.023 30.5583)" class="st2" width="3.7" height="16.7"/>
	
		<rect id="XMLID_21_" x="114.4" y="129" transform="matrix(-0.8661 0.4999 -0.4999 -0.8661 285.5636 198.1542)" class="st2" width="3.7" height="16.7"/>
	
		<rect id="XMLID_20_" x="136.9" y="45.3" transform="matrix(-0.4993 -0.8664 0.8664 -0.4993 161.5553 200.5303)" class="st2" width="3.7" height="16.7"/>
	
		<rect id="XMLID_19_" x="30.6" y="106.5" transform="matrix(-0.4993 -0.8664 0.8664 -0.4993 -50.8592 200.2698)" class="st2" width="3.7" height="16.7"/>
	
		<rect id="XMLID_11_" x="30.7" y="45.1" transform="matrix(-0.5011 0.8654 -0.8654 -0.5011 95.0638 52.142)" class="st2" width="3.7" height="16.7"/>
	
		<rect id="XMLID_10_" x="136.8" y="106.6" transform="matrix(-0.5011 0.8654 -0.8654 -0.5011 307.6059 52.5454)" class="st2" width="3.7" height="16.7"/>
	<rect id="XMLID_9_" x="15.9" y="82.4" class="st2" width="16.7" height="3.7"/>
	<rect id="XMLID_8_" x="138.6" y="82.4" class="st2" width="16.7" height="3.7"/>
	<rect id="XMLID_7_" x="83.7" y="137.2" class="st2" width="3.7" height="16.7"/>
	<rect id="XMLID_3_" x="83.7" y="14.5" class="st2" width="3.7" height="16.7"/>
</g>
<g id="timer_outline">
	<circle id="XMLID_6_" class="st3" cx="85.7" cy="83.9" r="61.5"/>
</g>
</svg>
