<svg xmlns="http://www.w3.org/2000/svg" viewBox="0 0 21 17.99"><defs><style>.cls-1{fill:#fff;}</style></defs><title>ui_home_icon</title><g id="Layer_2" data-name="Layer 2"><g id="Layer_1-2" data-name="Layer 1"><path class="cls-1" d="M20.44,7.36l-4-2.92V1.61a.81.81,0,0,0-.8-.8h-.83a.85.85,0,0,0-.85.85V2.71L10.27,0,.38,7.69A1,1,0,0,0,0,8.5a1.21,1.21,0,0,0,.26.74,1.11,1.11,0,0,0,1.54.26l1.3-1v8.82a.68.68,0,0,0,.68.68H5.12a.62.62,0,0,0,.62-.62V12.54a.9.9,0,0,1,.9-.9H8.38a.93.93,0,0,1,.93.93v4.8a.62.62,0,0,0,.62.62H17.2a.68.68,0,0,0,.68-.68v-9l1.18.86A1.23,1.23,0,0,0,20.79,9,1.22,1.22,0,0,0,20.44,7.36ZM15.05,14a1,1,0,0,1-1,1H12.85a1,1,0,0,1-1-1V12.38a1,1,0,0,1,1-1H14a1,1,0,0,1,1,1Z"/></g></g></svg>