<svg xmlns="http://www.w3.org/2000/svg" xmlns:xlink="http://www.w3.org/1999/xlink" viewBox="0 0 32.92 20.86"><defs><style>.cls-1{fill:none;}.cls-2{fill:#4f2170;}.cls-3{fill:#fff;}.cls-4{clip-path:url(#clip-path);}</style><clipPath id="clip-path" transform="translate(-0.99 -0.61)"><rect class="cls-1" width="13.67" height="22.17"/></clipPath></defs><title>ui_prog_s</title><g id="Layer_2" data-name="Layer 2"><g id="Layer_1-2" data-name="Layer 1"><path class="cls-2" d="M13.4,20a12,12,0,0,1-7.7-2.61A8.63,8.63,0,0,1,2.54,9.67,8.47,8.47,0,0,1,7.23,2.87a7.25,7.25,0,0,1,3.26-.75A9.65,9.65,0,0,1,16,4,18.28,18.28,0,0,1,18.3,6a19.14,19.14,0,0,0,2.89,2.54,9.1,9.1,0,0,0,5.11,1.53h0a10.26,10.26,0,0,0,3.87-.77q-.59,1.05-1.3,2.13A19.75,19.75,0,0,1,13.4,20Z" transform="translate(-0.99 -0.61)"/><path class="cls-3" d="M10.5,3.61A8.14,8.14,0,0,1,15.15,5.2a17.22,17.22,0,0,1,2.09,1.9,20.59,20.59,0,0,0,3.11,2.72,10.6,10.6,0,0,0,5.95,1.79l.64,0A18.24,18.24,0,0,1,13.4,18.48,10.53,10.53,0,0,1,6.63,16.2,7.14,7.14,0,0,1,4,9.83,7,7,0,0,1,7.9,4.21a5.77,5.77,0,0,1,2.6-.59m0-3a8.77,8.77,0,0,0-3.94.91,10.21,10.21,0,0,0-1.8,17,13.56,13.56,0,0,0,8.64,2.94,21.16,21.16,0,0,0,16.73-9.2,33.15,33.15,0,0,0,3.79-7.64,9.16,9.16,0,0,1-4.16,3.24,8.71,8.71,0,0,1-3.46.73A7.6,7.6,0,0,1,22,7.33c-1.9-1.27-3.25-3.24-5.13-4.58A11.17,11.17,0,0,0,10.5.61Z" transform="translate(-0.99 -0.61)"/><g class="cls-4"><path class="cls-3" d="M13.4,20a12,12,0,0,1-7.7-2.61A8.63,8.63,0,0,1,2.54,9.67,8.47,8.47,0,0,1,7.23,2.87a7.25,7.25,0,0,1,3.26-.75A9.65,9.65,0,0,1,16,4,18.28,18.28,0,0,1,18.3,6a19.14,19.14,0,0,0,2.89,2.54,9.1,9.1,0,0,0,5.11,1.53h0a10.26,10.26,0,0,0,3.87-.77q-.59,1.05-1.3,2.13A19.75,19.75,0,0,1,13.4,20Z" transform="translate(-0.99 -0.61)"/><path class="cls-3" d="M10.5,3.61A8.14,8.14,0,0,1,15.15,5.2a17.22,17.22,0,0,1,2.09,1.9,20.59,20.59,0,0,0,3.11,2.72,10.6,10.6,0,0,0,5.95,1.79l.64,0A18.24,18.24,0,0,1,13.4,18.48,10.53,10.53,0,0,1,6.63,16.2,7.14,7.14,0,0,1,4,9.83,7,7,0,0,1,7.9,4.21a5.77,5.77,0,0,1,2.6-.59m0-3a8.77,8.77,0,0,0-3.94.91,10.21,10.21,0,0,0-1.8,17,13.56,13.56,0,0,0,8.64,2.94,21.16,21.16,0,0,0,16.73-9.2,33.15,33.15,0,0,0,3.79-7.64,9.16,9.16,0,0,1-4.16,3.24,8.71,8.71,0,0,1-3.46.73A7.6,7.6,0,0,1,22,7.33c-1.9-1.27-3.25-3.24-5.13-4.58A11.17,11.17,0,0,0,10.5.61Z" transform="translate(-0.99 -0.61)"/></g></g></g></svg>