<?xml version="1.0" encoding="utf-8"?>
<!-- Generator: Adobe Illustrator 19.0.0, SVG Export Plug-In . SVG Version: 6.00 Build 0)  -->
<svg version="1.1" class="waveform_logo" id="Layer_1" xmlns="http://www.w3.org/2000/svg" xmlns:xlink="http://www.w3.org/1999/xlink" x="0px" y="0px"
	 viewBox="0 0 184 77" style="enable-background:new 0 0 184 77;" xml:space="preserve">
<style type="text/css">
	svg.waveform_logo .st0{fill:#BB3593;}
	svg.waveform_logo .st1{fill:#F4B11B;}
	svg.waveform_logo .st2{fill:#0A8BA9;}
	svg.waveform_logo .st3{fill:#98C13E;mix-blend-mode: multiply;}
	svg.waveform_logo .st4{fill:#40535D;}
</style>
<g id="XMLID_1_">
	<path id="XMLID_6_" class="st0" d="M90.8,19.6c0.1,0.1,0.2,0.2,0.2,0.2C91,19.7,90.9,19.7,90.8,19.6z"/>
	<path id="XMLID_5_" class="st1" d="M137.4,21.4c3.1,3.1,3.1,7.8,1.2,9.7c-2.3,2.3-6.4,1.9-9.5-1.2l-18.6-18.3
		c0,0-11.3-7.6-22.3,3.9c12.6-13.2,27.4-14.1,41.8-1.5c0,0,0,0,0,0L137.4,21.4z"/>
	<path id="XMLID_4_" class="st2" d="M45.9,20.6c-3.1-3.1-3.1-7.8-1.2-9.7C47,8.6,51,9,54.2,12.1l17.8,17.5c0,0,11.8,8.1,23.1-3.2
		C82.2,39.2,67.6,40.9,53.2,28c0,0,0,0,0,0L45.9,20.6z"/>
	<path id="XMLID_3_" class="st3" d="M78.2,25.6c0,0,0,0,11.4-11.4c13-13,28.7-11.2,40.5-0.2c-0.8-0.7-11.6-10.7-22.5,0
		c0,0,0.1,0.1-11.4,11.4C79.3,42,63.8,39.1,51.1,25.6C51.8,26.4,67.3,36.4,78.2,25.6z"/>
	<path id="XMLID_2_" class="st0" d="M52.3,19.6c-0.1,0.1-0.2,0.2-0.2,0.2C52.1,19.7,52.2,19.6,52.3,19.6z"/>
</g>
<g id="XMLID_12_">
	<path id="XMLID_13_" class="st4" d="M23.4,72l-4.5-13.8c-0.3-0.9-0.7-2.3-1.1-4.1h-0.1l-0.4,1.4l-0.9,2.7L11.9,72H10L4.1,51.4h2
		l3.3,11.9c0.8,3,1.3,5.1,1.5,6.5h0.1c0.7-3,1.3-4.9,1.6-5.9l4.2-12.6h1.7l4,12.5c0.9,3,1.5,4.9,1.7,5.9h0.1c0.1-0.8,0.6-3,1.5-6.6
		l3.1-11.8H31L25.4,72H23.4z"/>
	<path id="XMLID_15_" class="st4" d="M47.5,72l-0.5-3.3h-0.2c-1,1.3-2.1,2.3-3.2,2.8c-1.1,0.5-2.4,0.8-3.9,0.8c-2,0-3.6-0.5-4.7-1.6
		c-1.1-1-1.7-2.5-1.7-4.3c0-2,0.8-3.6,2.5-4.7c1.7-1.1,4.1-1.7,7.3-1.8l3.9-0.1v-1.4c0-2-0.4-3.4-1.2-4.4s-2.1-1.5-3.8-1.5
		c-1.9,0-3.9,0.5-5.9,1.6l-0.7-1.6c2.3-1.1,4.5-1.6,6.7-1.6c2.3,0,4,0.6,5.1,1.8c1.1,1.2,1.7,3,1.7,5.5V72H47.5z M40,70.7
		c2.2,0,3.9-0.6,5.2-1.9c1.3-1.3,1.9-3,1.9-5.2v-2l-3.6,0.2c-2.9,0.1-5,0.6-6.2,1.4c-1.2,0.8-1.8,2-1.8,3.6c0,1.3,0.4,2.3,1.2,3
		C37.4,70.3,38.5,70.7,40,70.7z"/>
	<path id="XMLID_18_" class="st4" d="M60.1,72l-8-20.6h1.9l5.3,14c0.7,1.8,1.2,3.4,1.6,4.7h0.1c0.5-1.7,1-3.3,1.6-4.7l5.3-14H70
		L62,72H60.1z"/>
	<path id="XMLID_20_" class="st4" d="M81.7,72.4c-3,0-5.3-0.9-7-2.8c-1.7-1.8-2.5-4.4-2.5-7.7c0-3.3,0.8-5.9,2.4-7.9
		c1.6-2,3.8-3,6.5-3c2.4,0,4.3,0.8,5.7,2.5c1.4,1.7,2.1,4,2.1,6.9V62H74.2c0,2.8,0.7,5,2,6.5c1.3,1.5,3.1,2.2,5.6,2.2
		c1.2,0,2.2-0.1,3.1-0.2s2-0.5,3.4-1.1v1.7c-1.2,0.5-2.2,0.8-3.2,1C84,72.3,82.9,72.4,81.7,72.4z M81.2,52.7c-2,0-3.6,0.7-4.8,2
		c-1.2,1.3-1.9,3.2-2.1,5.7H87c0-2.4-0.5-4.3-1.6-5.6C84.4,53.4,83,52.7,81.2,52.7z"/>
	<path id="XMLID_23_" class="st4" d="M105,54.4h-5.1V72h-4.5V54.4h-3.4v-2.1l3.4-1.4v-1.4c0-2.5,0.6-4.3,1.7-5.5
		c1.2-1.2,2.9-1.8,5.3-1.8c1.6,0,3.1,0.3,4.6,0.8l-1.2,3.4c-1.1-0.4-2.1-0.5-3.1-0.5c-1,0-1.7,0.3-2.2,0.9c-0.5,0.6-0.7,1.6-0.7,2.8
		v1.4h5.1V54.4z"/>
	<path id="XMLID_25_" class="st4" d="M127.1,61.5c0,3.4-0.9,6.1-2.6,8c-1.8,1.9-4.2,2.9-7.3,2.9c-2,0-3.7-0.4-5.2-1.3
		c-1.5-0.9-2.7-2.2-3.5-3.8s-1.2-3.6-1.2-5.8c0-3.4,0.9-6.1,2.6-8c1.7-1.9,4.2-2.9,7.4-2.9c3,0,5.4,1,7.2,2.9
		C126.2,55.6,127.1,58.2,127.1,61.5z M111.9,61.5c0,4.8,1.8,7.3,5.4,7.3c3.5,0,5.3-2.4,5.3-7.3c0-4.8-1.8-7.2-5.3-7.2
		c-1.9,0-3.2,0.6-4.1,1.9C112.3,57.4,111.9,59.2,111.9,61.5z"/>
	<path id="XMLID_28_" class="st4" d="M142.9,50.7c0.9,0,1.6,0.1,2.2,0.2l-0.4,4.1c-0.6-0.2-1.3-0.2-2-0.2c-1.8,0-3.2,0.6-4.3,1.7
		c-1.1,1.2-1.7,2.7-1.7,4.5v11h-4.5v-21h3.5l0.6,3.7h0.2c0.7-1.3,1.6-2.2,2.7-3C140.4,51.1,141.6,50.7,142.9,50.7z"/>
	<path id="XMLID_30_" class="st4" d="M166.6,72h-4.5V59.1c0-1.6-0.3-2.8-0.9-3.6c-0.6-0.8-1.6-1.2-2.8-1.2c-1.7,0-3,0.6-3.8,1.7
		s-1.2,3-1.2,5.6V72H149v-21h3.5l0.6,2.7h0.2c0.6-1,1.4-1.8,2.5-2.3c1.1-0.5,2.3-0.8,3.6-0.8c3.2,0,5.4,1.1,6.4,3.3h0.3
		c0.6-1,1.5-1.8,2.6-2.4c1.1-0.6,2.4-0.9,3.9-0.9c2.5,0,4.3,0.6,5.5,1.9c1.1,1.3,1.7,3.2,1.7,5.8V72h-4.5V59.1
		c0-1.6-0.3-2.8-0.9-3.6s-1.6-1.2-2.9-1.2c-1.7,0-3,0.5-3.8,1.6c-0.8,1.1-1.2,2.7-1.2,5V72z"/>
</g>
</svg>
