<?xml version="1.0" encoding="utf-8"?>
<!-- Generator: Adobe Illustrator 19.0.0, SVG Export Plug-In . SVG Version: 6.00 Build 0)  -->
<svg class="burger" version="1.1" xmlns="http://www.w3.org/2000/svg" xmlns:xlink="http://www.w3.org/1999/xlink" x="0px" y="0px"
	 viewBox="0 0 40 40" style="enable-background:new 0 0 40 40;" xml:space="preserve">
<style type="text/css">
	svg.burger .st0{fill:#FFFFFF;stroke:#028BA9;stroke-width:2;stroke-miterlimit:10;}
	svg.burger .st1{fill-rule:evenodd;clip-rule:evenodd;fill:#028BA9;}
</style>
<g id="Layer_1">
	<circle id="XMLID_1_" class="st0" cx="20" cy="20" r="19"/>
</g>
<g id="Layer_2">
	<g id="XMLID_2_">
		<g id="XMLID_3_">
			<g id="XMLID_44_">
				<path id="XMLID_45_" class="st1" d="M25.3,13H14.7c-0.7,0-1.2,0.6-1.2,1.2v0.2c0,0.7,0.6,1.2,1.2,1.2h10.5
					c0.7,0,1.2-0.6,1.2-1.2v-0.2C26.5,13.6,25.9,13,25.3,13z M25.3,18.6H14.7c-0.7,0-1.2,0.6-1.2,1.2v0.2c0,0.7,0.6,1.2,1.2,1.2
					h10.5c0.7,0,1.2-0.6,1.2-1.2v-0.2C26.5,19.2,25.9,18.6,25.3,18.6z M25.3,24.3H14.7c-0.7,0-1.2,0.6-1.2,1.2v0.2
					c0,0.7,0.6,1.2,1.2,1.2h10.5c0.7,0,1.2-0.6,1.2-1.2v-0.2C26.5,24.9,25.9,24.3,25.3,24.3z"/>
			</g>
		</g>
	</g>
</g>
</svg>
