<?xml version="1.0" encoding="utf-8"?>
<!-- Generator: Adobe Illustrator 19.0.0, SVG Export Plug-In . SVG Version: 6.00 Build 0)  -->
<svg class="help" version="1.1" xmlns="http://www.w3.org/2000/svg" xmlns:xlink="http://www.w3.org/1999/xlink" x="0px" y="0px"
	 viewBox="0 0 40 40" style="enable-background:new 0 0 40 40;" xml:space="preserve">
<!-- <style type="text/css">
	svg.help .st0{fill:#FFFFFF;stroke:#028BA9;stroke-width:2;stroke-miterlimit:10;}
	svg.help .st1{fill:#028BA9;}
</style> -->
<g id="Layer_1">
	<circle id="XMLID_1_" class="st0" cx="20" cy="20" r="19"/>
</g>
<g id="Layer_2">
	<g>
		<g id="XMLID_32_">
			<path id="XMLID_33_" class="st1" d="M24,11.3c-0.5-0.4-1.1-0.8-1.9-1c-0.7-0.2-1.6-0.3-2.5-0.3c-1.7,0-3.6,0.4-4.7,1.1
				c-0.4,0.3-0.6,0.8-0.4,1.2l0.7,1.5c0.1,0.3,0.4,0.5,0.7,0.6c0.1,0,0.2,0,0.3,0c0.2,0,0.4-0.1,0.6-0.2c0.5-0.3,1.4-0.6,2.2-0.6
				c0.6,0,1,0.1,1.3,0.3c0.2,0.2,0.3,0.4,0.3,0.7c0,0.7-0.4,1.4-1.7,2.6l0,0c-0.8,0.8-1.3,1.6-1.7,2.4c-0.3,0.8-0.5,1.6-0.3,2.5
				l0.1,0.6c0,0.5,0.5,0.9,1.1,0.9h2.2c0.3,0,0.6-0.1,0.8-0.3c0.2-0.2,0.3-0.5,0.3-0.7l0-0.6c0,0,0,0,0,0c-0.1-1,0.3-1.7,1.3-2.8
				l0,0v0l0,0c0.7-0.7,1.4-1.4,1.9-2.1c0.6-0.9,0.9-1.8,0.9-2.7C25.5,13.3,25,12.1,24,11.3z M19.2,25c-0.8,0-1.5,0.2-2,0.7
				c-0.5,0.5-0.8,1.1-0.8,1.8c0,0.7,0.3,1.3,0.8,1.8c0.5,0.5,1.2,0.7,2,0.7c0.4,0,0.8-0.1,1.1-0.2c0.3-0.1,0.7-0.3,0.9-0.5
				c0.5-0.5,0.8-1.1,0.8-1.8c0-0.7-0.3-1.3-0.8-1.8C20.7,25.3,20,25,19.2,25z"/>
		</g>
	</g>
</g>
</svg>
