<?xml version="1.0" encoding="utf-8"?>
<!-- Generator: Adobe Illustrator 19.0.0, SVG Export Plug-In . SVG Version: 6.00 Build 0)  -->
<svg class="menu" version="1.1" xmlns="http://www.w3.org/2000/svg" xmlns:xlink="http://www.w3.org/1999/xlink" x="0px" y="0px"
	 viewBox="0 0 40 40" style="enable-background:new 0 0 40 40;" xml:space="preserve">
<!-- <style type="text/css">
	svg.menu .st0{fill:#FFFFFF;stroke:#028BA9;stroke-width:2;stroke-miterlimit:10;}
	svg.menu .st1{fill-rule:evenodd;clip-rule:evenodd;fill:#028BA9;}
</style> -->
<g id="Layer_1">
	<circle id="XMLID_1_" class="st0" cx="20" cy="20" r="19"/>
</g>
<g id="Layer_2">
	<path id="XMLID_18_" class="st1" d="M27.4,21.8l-7-7c-0.2-0.2-0.6-0.2-0.9,0l-7,7c-0.2,0.2-0.5,0.5-0.5,0.5c0,0,0,0.3,0,0.7v6.3
		c0,0.3,0.3,0.7,0.6,0.7h4.1c0.3,0,0.6-0.3,0.6-0.7v-5.6c0-0.3,0.3-0.6,0.6-0.6H22c0.3,0,0.6,0.2,0.6,0.6v5.6c0,0.3,0.3,0.7,0.6,0.7
		h4.1c0.3,0,0.6-0.3,0.6-0.7v-6.3c0-0.3,0-0.7,0-0.7C27.8,22.3,27.6,22.1,27.4,21.8z M24.1,12.5l2.2,2.2c0.2,0.2,0.4,0.2,0.4-0.2
		v-3.5c0-0.3-0.2-0.7-0.6-0.7h-1.9c-0.4,0-0.6,0.2-0.6,0.7v0.4C23.7,12.1,23.7,12.1,24.1,12.5z M29.8,19.6l-9.4-9.4
		c-0.2-0.2-0.6-0.2-0.9,0l-9.3,9.4c-0.2,0.2-0.2,0.6,0,0.9l0.8,0.8c0.2,0.2,0.6,0.2,0.9,0l7.7-7.7c0.2-0.2,0.6-0.2,0.9,0l7.7,7.8
		c0.2,0.2,0.6,0.2,0.9,0l0.8-0.8C30,20.3,30,19.9,29.8,19.6z"/>
</g>
</svg>
