<?xml version="1.0" encoding="utf-8"?>
<!-- Generator: Adobe Illustrator 19.0.0, SVG Export Plug-In . SVG Version: 6.00 Build 0)  -->
<svg class="glossary" version="1.1" xmlns="http://www.w3.org/2000/svg" xmlns:xlink="http://www.w3.org/1999/xlink" x="0px" y="0px"
	 viewBox="0 0 40 40" style="enable-background:new 0 0 40 40;" xml:space="preserve">
<style type="text/css">
	svg.glossary .st0{fill:#FFFFFF;stroke:#028BA9;stroke-width:2;stroke-miterlimit:10;}
	svg.glossary .st1{fill-rule:evenodd;clip-rule:evenodd;fill:#028BA9;}
</style>
<g id="Layer_1">
	<circle id="XMLID_1_" class="st0" cx="20" cy="20" r="19"/>
</g>
<g id="Layer_2">
	<path class="st1" d="M24.7,11.5c-1.8,0-3.4,0.4-4.7,1.2c-1.3-0.8-2.9-1.2-4.7-1.2c-2.3,0-4.5,0.8-5.8,2.1C9.2,13.9,9,14.3,9,14.8
		v10.7c0,0.6,0.4,1.2,1,1.5c0.2,0.1,0.4,0.1,0.6,0.1c0.1,0,0.2,0,0.3,0c0,0.3,0.3,0.6,0.7,0.6h7c0.2,0.5,0.7,0.9,1.3,0.9
		c0.6,0,1.1-0.4,1.3-0.9h7c0.3,0,0.6-0.3,0.7-0.6c0.1,0,0.2,0,0.3,0c0.2,0,0.4,0,0.6-0.1c0.6-0.2,1-0.8,1-1.5V14.8
		c0-0.4-0.2-0.8-0.5-1.1C29.2,12.3,27,11.5,24.7,11.5z M29.4,25.5c-0.1-0.1-0.2-0.2-0.3-0.3c-1.1-0.9-2.7-1.4-4.4-1.4
		c-1.8,0-3.6,0.6-4.7,1.7c-1.1-1.1-2.9-1.7-4.7-1.7c-1.6,0-3.2,0.5-4.4,1.4c-0.1,0.1-0.2,0.2-0.3,0.3V14.8c1.1-1.1,2.9-1.7,4.7-1.7
		c1.5,0,3,0.4,4.1,1.1l0.5,3.1c0,0,0.1,0.1,0.1,0.1s0.1,0,0.1-0.1l0.5-3.1c1.1-0.8,2.6-1.1,4.1-1.1c1.8,0,3.6,0.6,4.7,1.7V25.5z"/>
</g>
</svg>
