<?xml version="1.0" encoding="utf-8"?>
<!-- Generator: Adobe Illustrator 19.0.0, SVG Export Plug-In . SVG Version: 6.00 Build 0)  -->
<svg class="next" version="1.1" xmlns="http://www.w3.org/2000/svg" xmlns:xlink="http://www.w3.org/1999/xlink" x="0px" y="0px"
	 viewBox="0 0 40 40" style="enable-background:new 0 0 40 40;" xml:space="preserve">
<!-- <style type="text/css">
	svg.next .st0{fill:#FFFFFF;stroke:#028BA9;stroke-width:2;stroke-miterlimit:10;}
	svg.next .st1{fill-rule:evenodd;clip-rule:evenodd;fill:#028BA9;}
</style> -->
<g id="Layer_1">
	<circle id="XMLID_1_" class="st0" cx="20" cy="20" r="19"/>
</g>
<g id="Layer_2">
	<path id="XMLID_2_" class="st1" d="M21.8,29.7l9.6-9.7c0,0-9.6-9.7-9.6-9.7c0,0,0,0,0,0c-1.6-1.6-4.1,0.9-2.5,2.5
		c0,0,3.7,3.7,5.4,5.5H10.3c0,0,0,0,0,0c-2.2,0-2.2,3.5,0,3.5h0l0,0c0,0,11.5,0,14.5,0c-1.7,1.8-5.3,5.4-5.3,5.4
		c0,0-0.1,0.1-0.1,0.1C17.8,28.9,20.2,31.3,21.8,29.7"/>
</g>
</svg>
