<svg class="replay" version="1.1" xmlns="http://www.w3.org/2000/svg" xmlns:xlink="http://www.w3.org/1999/xlink" x="0px" y="0px"
	 viewBox="-15 -15 74 74" style="enable-background:new 0 0 40 40;" xml:space="preserve">
	<defs>
<!-- 		<style>.cls-1{fill:#fff;}</style> -->
	</defs>
	<title>ui_replay_icon</title>
	<g id="Layer_1">
		<circle id="XMLID_1_" class="st0" cx="23" cy="23" r="35"/>
	</g> 	
	<g id="Layer_2" data-name="Layer 2">
		<g  id="Layer_1-2" data-name="Layer 1">
			<path class="st1" d="M0,6.6.54,21.17a1.68,1.68,0,0,0,1.94,1.6l13.85-2.12A1.24,1.24,0,0,0,17,18.57c-1.22-1.27-2.79-2.94-3.53-3.85a12.07,12.07,0,0,1,21.3,6.06,12.32,12.32,0,0,1,.09,2.3l0,.5c0,.17,0,.33-.06.5s-.1.61-.17.92l-.05.24a12,12,0,0,1-.75,2.15c-2.8,6.06-10.17,9.13-16.23,6.33a10.4,10.4,0,0,1-2.49-1.46,4.88,4.88,0,0,0-4.19-1l-.12,0a4.87,4.87,0,0,0-1.91,8.66,29.82,29.82,0,0,0,4.93,3,22.37,22.37,0,0,0,30.3-13.63c.06-.18.12-.36.17-.54s.15-.53.22-.8c.11-.44.27-1.18.36-1.62,0-.09,0-.19.06-.29.11-.64.18-1.28.23-1.93,0-.11,0-.23,0-.34a22.48,22.48,0,0,0-4-14.21l0,0A22.37,22.37,0,0,0,19.85.2,20.62,20.62,0,0,0,5.35,8.42c-1-.82-2.26-1.88-3.28-2.8A1.24,1.24,0,0,0,0,6.6Z"/>
		</g>
	</g>
</svg>