<?xml version="1.0" encoding="utf-8"?>
<!-- Generator: Adobe Illustrator 19.0.0, SVG Export Plug-In . SVG Version: 6.00 Build 0)  -->
<svg class="resources" version="1.1" xmlns="http://www.w3.org/2000/svg" xmlns:xlink="http://www.w3.org/1999/xlink" x="0px" y="0px"
	 viewBox="0 0 40 40" style="enable-background:new 0 0 40 40;" xml:space="preserve">
<style type="text/css">
	svg.resources .st0{fill:#FFFFFF;stroke:#028BA9;stroke-width:2;stroke-miterlimit:10;}
	svg.resources .st1{fill-rule:evenodd;clip-rule:evenodd;fill:#028BA9;}
</style>
<g id="Layer_1">
	<circle id="XMLID_1_" class="st0" cx="20" cy="20" r="19"/>
</g>
<g id="Layer_2">
	<path id="XMLID_21_" class="st1" d="M26,31H14c-1.1,0-2-0.9-2-2V13.8c0-1.1,0.9-2,2-2h2.1l-1.4,2.1h-0.8v14.9h12.2V13.9h-0.8
		l-1.4-2.1H26c1.1,0,2,0.9,2,2V29C28,30.1,27.1,31,26,31z M15.3,17.9c0-0.4,0.4-0.8,0.8-0.8h4.3c0.4,0,0.8,0.4,0.8,0.8V18
		c0,0.4-0.4,0.8-0.8,0.8h-4.3c-0.4,0-0.8-0.4-0.8-0.8V17.9z M16.1,24H24c0.4,0,0.8,0.4,0.8,0.8v0.1c0,0.4-0.4,0.8-0.8,0.8h-7.8
		c-0.4,0-0.8-0.4-0.8-0.8v-0.1C15.3,24.4,15.7,24,16.1,24z M15.3,21.4c0-0.4,0.4-0.8,0.8-0.8H24c0.4,0,0.8,0.4,0.8,0.8v0.1
		c0,0.4-0.4,0.8-0.8,0.8h-7.8c-0.4,0-0.8-0.4-0.8-0.8V21.4z M24.4,14.5l-4.4,0l-4.4,0l0.4-0.6l1.4-2.1l0.8-1.1l0,0
		C18.3,9.8,19,9,20,9s1.7,0.8,1.7,1.7l0,0l0.8,1.1l1.4,2.1L24.4,14.5z M20,10.1c-0.3,0-0.6,0.3-0.6,0.6s0.3,0.6,0.6,0.6
		s0.6-0.3,0.6-0.6S20.3,10.1,20,10.1z"/>
</g>
</svg>
